<?xml version="1.0" encoding="utf-8" standalone="no"?>
<!DOCTYPE svg PUBLIC "-//W3C//DTD SVG 1.1//EN"
  "http://www.w3.org/Graphics/SVG/1.1/DTD/svg11.dtd">
<svg xmlns:xlink="http://www.w3.org/1999/xlink" width="656.64pt" height="260.64pt" viewBox="0 0 656.64 260.64" xmlns="http://www.w3.org/2000/svg" version="1.1">
 <metadata>
  <rdf:RDF xmlns:dc="http://purl.org/dc/elements/1.1/" xmlns:cc="http://creativecommons.org/ns#" xmlns:rdf="http://www.w3.org/1999/02/22-rdf-syntax-ns#">
   <cc:Work>
    <dc:type rdf:resource="http://purl.org/dc/dcmitype/StillImage"/>
    <dc:date>2026-06-25T09:10:44.902497</dc:date>
    <dc:format>image/svg+xml</dc:format>
    <dc:creator>
     <cc:Agent>
      <dc:title>Matplotlib v3.10.8, https://matplotlib.org/</dc:title>
     </cc:Agent>
    </dc:creator>
   </cc:Work>
  </rdf:RDF>
 </metadata>
 <defs>
  <style type="text/css">*{stroke-linejoin: round; stroke-linecap: butt}</style>
 </defs>
 <g id="figure_1">
  <g id="patch_1">
   <path d="M 0 260.64 
L 656.64 260.64 
L 656.64 0 
L 0 0 
z
" style="fill: #ffffff"/>
  </g>
  <g id="axes_1">
   <g id="patch_2">
    <path d="M 43.838278 223.40419 
L 316.245892 223.40419 
L 316.245892 16.744114 
L 43.838278 16.744114 
z
" style="fill: #ffffff"/>
   </g>
   <g id="matplotlib.axis_1">
    <g id="xtick_1">
     <g id="line2d_1">
      <defs>
       <path id="mbe11b8b060" d="M 0 0 
L 0 3.5 
" style="stroke: #000000; stroke-width: 0.8"/>
      </defs>
      <g>
       <use xlink:href="#mbe11b8b060" x="56.220442" y="223.40419" style="stroke: #000000; stroke-width: 0.8"/>
      </g>
     </g>
     <g id="text_1">
      <!-- $\mathdefault{0}$ -->
      <g transform="translate(52.806198 240.090067) scale(0.14 -0.14)">
       <defs>
        <path id="CMR17-30" d="M 2688 2025 
C 2688 2416 2682 3080 2413 3591 
C 2176 4039 1798 4198 1466 4198 
C 1158 4198 768 4058 525 3597 
C 269 3118 243 2524 243 2025 
C 243 1661 250 1106 448 619 
C 723 -39 1216 -128 1466 -128 
C 1760 -128 2208 -7 2470 600 
C 2662 1042 2688 1559 2688 2025 
z
M 1466 -26 
C 1056 -26 813 325 723 812 
C 653 1188 653 1738 653 2096 
C 653 2588 653 2997 736 3387 
C 858 3929 1216 4096 1466 4096 
C 1728 4096 2067 3923 2189 3400 
C 2272 3036 2278 2607 2278 2096 
C 2278 1680 2278 1169 2202 792 
C 2067 95 1690 -26 1466 -26 
z
" transform="scale(0.015625)"/>
       </defs>
       <use xlink:href="#CMR17-30" transform="scale(0.996264)"/>
      </g>
     </g>
    </g>
    <g id="xtick_2">
     <g id="line2d_2">
      <g>
       <use xlink:href="#mbe11b8b060" x="125.010244" y="223.40419" style="stroke: #000000; stroke-width: 0.8"/>
      </g>
     </g>
     <g id="text_2">
      <!-- $\mathdefault{5}$ -->
      <g transform="translate(121.595999 240.090067) scale(0.14 -0.14)">
       <defs>
        <path id="CMR17-35" d="M 730 3692 
C 794 3666 1056 3584 1325 3584 
C 1920 3584 2246 3911 2432 4100 
C 2432 4157 2432 4192 2394 4192 
C 2387 4192 2374 4192 2323 4163 
C 2099 4058 1837 3973 1517 3973 
C 1325 3973 1037 3999 723 4139 
C 653 4171 640 4171 634 4171 
C 602 4171 595 4164 595 4037 
L 595 2203 
C 595 2089 595 2057 659 2057 
C 691 2057 704 2070 736 2114 
C 941 2401 1222 2522 1542 2522 
C 1766 2522 2246 2382 2246 1289 
C 2246 1085 2246 715 2054 421 
C 1894 159 1645 25 1370 25 
C 947 25 518 320 403 814 
C 429 807 480 795 506 795 
C 589 795 749 840 749 1038 
C 749 1210 627 1280 506 1280 
C 358 1280 262 1190 262 1011 
C 262 454 704 -128 1382 -128 
C 2042 -128 2669 440 2669 1264 
C 2669 2030 2170 2624 1549 2624 
C 1222 2624 947 2503 730 2274 
L 730 3692 
z
" transform="scale(0.015625)"/>
       </defs>
       <use xlink:href="#CMR17-35" transform="scale(0.996264)"/>
      </g>
     </g>
    </g>
    <g id="xtick_3">
     <g id="line2d_3">
      <g>
       <use xlink:href="#mbe11b8b060" x="193.800045" y="223.40419" style="stroke: #000000; stroke-width: 0.8"/>
      </g>
     </g>
     <g id="text_3">
      <!-- $\mathdefault{10}$ -->
      <g transform="translate(186.971557 240.090067) scale(0.14 -0.14)">
       <defs>
        <path id="CMR17-31" d="M 1702 4058 
C 1702 4192 1696 4192 1606 4192 
C 1357 3916 979 3827 621 3827 
C 602 3827 570 3827 563 3808 
C 557 3795 557 3782 557 3648 
C 755 3648 1088 3686 1344 3839 
L 1344 461 
C 1344 236 1331 160 781 160 
L 589 160 
L 589 0 
C 896 0 1216 0 1523 0 
C 1830 0 2150 0 2458 0 
L 2458 160 
L 2266 160 
C 1715 160 1702 230 1702 458 
L 1702 4058 
z
" transform="scale(0.015625)"/>
       </defs>
       <use xlink:href="#CMR17-31" transform="scale(0.996264)"/>
       <use xlink:href="#CMR17-30" transform="translate(45.690477 0) scale(0.996264)"/>
      </g>
     </g>
    </g>
    <g id="xtick_4">
     <g id="line2d_4">
      <g>
       <use xlink:href="#mbe11b8b060" x="262.589846" y="223.40419" style="stroke: #000000; stroke-width: 0.8"/>
      </g>
     </g>
     <g id="text_4">
      <!-- $\mathdefault{15}$ -->
      <g transform="translate(255.761358 240.090067) scale(0.14 -0.14)">
       <use xlink:href="#CMR17-31" transform="scale(0.996264)"/>
       <use xlink:href="#CMR17-35" transform="translate(45.690477 0) scale(0.996264)"/>
      </g>
     </g>
    </g>
    <g id="text_5">
     <!-- fold number $n$ -->
     <g transform="translate(137.650577 256.487972) scale(0.14 -0.14)">
      <defs>
       <path id="CMR17-66" d="M 979 2560 
L 1709 2560 
L 1709 2725 
L 966 2725 
L 966 3494 
C 966 4022 1235 4352 1510 4352 
C 1594 4352 1690 4327 1754 4282 
C 1702 4269 1568 4225 1568 4067 
C 1568 3901 1696 3850 1786 3850 
C 1875 3850 2003 3901 2003 4067 
C 2003 4308 1773 4454 1517 4454 
C 1152 4454 653 4156 653 3481 
L 653 2725 
L 141 2725 
L 141 2560 
L 653 2560 
L 653 427 
C 653 184 627 153 218 153 
L 218 -13 
C 371 0 666 0 832 0 
C 1018 0 1344 0 1517 -13 
L 1517 153 
C 1056 153 979 153 979 439 
L 979 2560 
z
" transform="scale(0.015625)"/>
       <path id="CMR17-6f" d="M 2758 1356 
C 2758 2176 2163 2816 1466 2816 
C 768 2816 173 2176 173 1356 
C 173 551 768 -64 1466 -64 
C 2163 -64 2758 551 2758 1356 
z
M 1466 51 
C 1165 51 909 230 762 480 
C 602 767 582 1126 582 1408 
C 582 1677 595 2010 762 2298 
C 890 2509 1139 2714 1466 2714 
C 1754 2714 1997 2554 2150 2330 
C 2349 2029 2349 1607 2349 1408 
C 2349 1158 2336 775 2163 467 
C 1984 173 1709 51 1466 51 
z
" transform="scale(0.015625)"/>
       <path id="CMR17-6c" d="M 979 4396 
L 218 4326 
L 218 4160 
C 595 4160 653 4122 653 3817 
L 653 426 
C 653 184 627 153 218 153 
L 218 -13 
C 371 0 653 0 813 0 
C 979 0 1261 0 1414 -13 
L 1414 153 
C 1005 153 979 178 979 426 
L 979 4396 
z
" transform="scale(0.015625)"/>
       <path id="CMR17-64" d="M 1869 4326 
L 1869 4160 
C 2246 4160 2304 4122 2304 3820 
L 2304 2345 
C 2278 2377 2016 2790 1498 2790 
C 845 2790 211 2208 211 1364 
C 211 525 806 -64 1434 -64 
C 1978 -64 2259 337 2291 380 
L 2291 -63 
L 3066 -63 
L 3066 128 
C 2688 128 2630 166 2630 473 
L 2630 4396 
L 1869 4326 
z
M 2291 755 
C 2291 563 2176 390 2029 262 
C 1811 70 1594 38 1472 38 
C 1286 38 621 134 621 1356 
C 621 2612 1363 2688 1530 2688 
C 1824 2688 2061 2522 2208 2291 
C 2291 2157 2291 2138 2291 2023 
L 2291 755 
z
" transform="scale(0.015625)"/>
       <path id="CMR17-6e" d="M 2656 1933 
C 2656 2259 2592 2790 1837 2790 
C 1331 2790 1069 2400 973 2144 
L 966 2144 
L 966 2790 
L 211 2720 
L 211 2554 
C 589 2554 646 2515 646 2208 
L 646 428 
C 646 184 621 153 211 153 
L 211 -13 
C 365 0 646 0 813 0 
C 979 0 1267 0 1421 -13 
L 1421 153 
C 1011 153 986 178 986 428 
L 986 1658 
C 986 2247 1344 2688 1792 2688 
C 2266 2688 2317 2266 2317 1958 
L 2317 428 
C 2317 184 2291 153 1882 153 
L 1882 -13 
C 2035 0 2317 0 2483 0 
C 2650 0 2938 0 3091 -13 
L 3091 153 
C 2682 153 2656 178 2656 428 
L 2656 1933 
z
" transform="scale(0.015625)"/>
       <path id="CMR17-75" d="M 1882 2693 
L 1882 2528 
C 2259 2528 2317 2489 2317 2186 
L 2317 1032 
C 2317 500 2029 38 1555 38 
C 1030 38 986 348 986 678 
L 986 2763 
L 211 2693 
L 211 2528 
C 467 2528 640 2528 646 2274 
L 646 1058 
C 646 633 646 361 813 183 
C 896 101 1056 -64 1517 -64 
C 2061 -64 2272 377 2323 506 
L 2330 506 
L 2330 -63 
L 3091 -63 
L 3091 128 
C 2714 128 2656 166 2656 473 
L 2656 2763 
L 1882 2693 
z
" transform="scale(0.015625)"/>
       <path id="CMR17-6d" d="M 4326 1933 
C 4326 2252 4269 2790 3507 2790 
C 3072 2790 2771 2496 2656 2151 
L 2650 2151 
C 2573 2676 2195 2790 1837 2790 
C 1331 2790 1069 2400 973 2144 
L 966 2144 
L 966 2790 
L 211 2720 
L 211 2554 
C 589 2554 646 2515 646 2208 
L 646 428 
C 646 184 621 153 211 153 
L 211 -13 
C 365 0 646 0 813 0 
C 979 0 1267 0 1421 -13 
L 1421 153 
C 1011 153 986 178 986 428 
L 986 1658 
C 986 2247 1344 2688 1792 2688 
C 2266 2688 2317 2266 2317 1958 
L 2317 428 
C 2317 184 2291 153 1882 153 
L 1882 -13 
C 2035 0 2317 0 2483 0 
C 2650 0 2938 0 3091 -13 
L 3091 153 
C 2682 153 2656 178 2656 428 
L 2656 1658 
C 2656 2247 3014 2688 3462 2688 
C 3936 2688 3987 2266 3987 1958 
L 3987 428 
C 3987 184 3962 153 3552 153 
L 3552 -13 
C 3706 0 3987 0 4154 0 
C 4320 0 4608 0 4762 -13 
L 4762 153 
C 4352 153 4326 178 4326 428 
L 4326 1933 
z
" transform="scale(0.015625)"/>
       <path id="CMR17-62" d="M 960 4396 
L 198 4326 
L 198 4160 
C 576 4160 634 4122 634 3817 
L 634 -13 
L 749 -13 
L 934 441 
C 1120 141 1395 -64 1766 -64 
C 2406 -64 3053 500 3053 1370 
C 3053 2188 2477 2790 1830 2790 
C 1434 2790 1152 2579 960 2330 
L 960 4396 
z
M 973 2004 
C 973 2118 973 2138 1062 2272 
C 1312 2657 1670 2688 1792 2688 
C 1984 2688 2643 2585 2643 1376 
C 2643 108 1888 38 1734 38 
C 1536 38 1248 114 1043 486 
C 973 608 973 621 973 735 
L 973 2004 
z
" transform="scale(0.015625)"/>
       <path id="CMR17-65" d="M 2438 1472 
C 2464 1498 2464 1511 2464 1576 
C 2464 2238 2118 2816 1389 2816 
C 710 2816 173 2169 173 1383 
C 173 551 781 -64 1459 -64 
C 2176 -64 2458 607 2458 740 
C 2458 784 2419 784 2406 784 
C 2362 784 2355 771 2330 696 
C 2189 265 1837 51 1504 51 
C 1229 51 954 203 781 480 
C 582 803 582 1176 582 1472 
L 2438 1472 
z
M 589 1568 
C 634 2505 1126 2714 1382 2714 
C 1818 2714 2112 2297 2118 1568 
L 589 1568 
z
" transform="scale(0.015625)"/>
       <path id="CMR17-72" d="M 960 1497 
C 960 2112 1222 2688 1702 2688 
C 1747 2688 1792 2682 1837 2662 
C 1837 2662 1696 2617 1696 2452 
C 1696 2298 1818 2234 1914 2234 
C 1990 2234 2131 2279 2131 2458 
C 2131 2663 1926 2790 1709 2790 
C 1222 2790 1011 2317 947 2093 
L 941 2093 
L 941 2790 
L 198 2720 
L 198 2554 
C 576 2554 634 2515 634 2208 
L 634 428 
C 634 184 608 153 198 153 
L 198 -13 
C 352 0 646 0 813 0 
C 998 0 1325 0 1498 -13 
L 1498 153 
C 1037 153 960 153 960 440 
L 960 1497 
z
" transform="scale(0.015625)"/>
       <path id="CMMI12-6e" d="M 1318 1871 
C 1331 1910 1491 2229 1728 2433 
C 1894 2586 2112 2689 2362 2689 
C 2618 2689 2707 2497 2707 2242 
C 2707 1878 2445 1150 2317 805 
C 2259 651 2227 568 2227 453 
C 2227 166 2426 -64 2733 -64 
C 3328 -64 3552 875 3552 913 
C 3552 945 3526 971 3488 971 
C 3430 971 3424 952 3392 843 
C 3245 319 3002 64 2752 64 
C 2688 64 2586 64 2586 269 
C 2586 429 2656 621 2694 710 
C 2822 1063 3091 1780 3091 2145 
C 3091 2528 2867 2816 2381 2816 
C 1811 2816 1510 2415 1395 2255 
C 1376 2618 1114 2816 832 2816 
C 627 2816 486 2695 378 2478 
C 262 2248 173 1865 173 1839 
C 173 1814 198 1782 243 1782 
C 294 1782 301 1788 339 1935 
C 442 2325 557 2689 813 2689 
C 960 2689 1011 2586 1011 2395 
C 1011 2254 947 2005 902 1807 
L 723 1118 
C 698 996 627 709 595 594 
C 550 428 480 128 480 96 
C 480 6 550 -64 646 -64 
C 723 -64 813 -26 864 70 
C 877 102 934 326 966 453 
L 1107 1028 
L 1318 1871 
z
" transform="scale(0.015625)"/>
      </defs>
      <use xlink:href="#CMR17-66" transform="scale(0.996264)"/>
      <use xlink:href="#CMR17-6f" transform="translate(27.473512 0) scale(0.996264)"/>
      <use xlink:href="#CMR17-6c" transform="translate(73.16399 0) scale(0.996264)"/>
      <use xlink:href="#CMR17-64" transform="translate(98.035048 0) scale(0.996264)"/>
      <use xlink:href="#CMR17-6e" transform="translate(179.006384 0) scale(0.996264)"/>
      <use xlink:href="#CMR17-75" transform="translate(227.2993 0) scale(0.996264)"/>
      <use xlink:href="#CMR17-6d" transform="translate(278.19467 0) scale(0.996264)"/>
      <use xlink:href="#CMR17-62" transform="translate(352.511806 0) scale(0.996264)"/>
      <use xlink:href="#CMR17-65" transform="translate(406.009614 0) scale(0.996264)"/>
      <use xlink:href="#CMR17-72" transform="translate(446.495275 0) scale(0.996264)"/>
      <use xlink:href="#CMMI12-6e" transform="translate(511.852009 0) scale(0.996264)"/>
     </g>
    </g>
   </g>
   <g id="matplotlib.axis_2">
    <g id="ytick_1">
     <g id="line2d_5">
      <defs>
       <path id="mb70464e8a2" d="M 0 0 
L -3.5 0 
" style="stroke: #000000; stroke-width: 0.8"/>
      </defs>
      <g>
       <use xlink:href="#mb70464e8a2" x="43.838278" y="214.010551" style="stroke: #000000; stroke-width: 0.8"/>
      </g>
     </g>
     <g id="text_6">
      <!-- $\mathdefault{0.0}$ -->
      <g transform="translate(19.387696 218.853489) scale(0.14 -0.14)">
       <defs>
        <path id="CMMI12-3a" d="M 1178 307 
C 1178 492 1024 619 870 619 
C 685 619 557 466 557 313 
C 557 128 710 0 864 0 
C 1050 0 1178 153 1178 307 
z
" transform="scale(0.015625)"/>
       </defs>
       <use xlink:href="#CMR17-30" transform="scale(0.996264)"/>
       <use xlink:href="#CMMI12-3a" transform="translate(45.690477 0) scale(0.996264)"/>
       <use xlink:href="#CMR17-30" transform="translate(72.787654 0) scale(0.996264)"/>
      </g>
     </g>
    </g>
    <g id="ytick_2">
     <g id="line2d_6">
      <g>
       <use xlink:href="#mb70464e8a2" x="43.838278" y="176.435991" style="stroke: #000000; stroke-width: 0.8"/>
      </g>
     </g>
     <g id="text_7">
      <!-- $\mathdefault{0.2}$ -->
      <g transform="translate(19.387696 181.278929) scale(0.14 -0.14)">
       <defs>
        <path id="CMR17-32" d="M 2669 989 
L 2554 989 
C 2490 536 2438 459 2413 420 
C 2381 369 1920 369 1830 369 
L 602 369 
C 832 619 1280 1072 1824 1597 
C 2214 1967 2669 2402 2669 3035 
C 2669 3790 2067 4224 1395 4224 
C 691 4224 262 3604 262 3030 
C 262 2780 448 2748 525 2748 
C 589 2748 781 2787 781 3010 
C 781 3207 614 3264 525 3264 
C 486 3264 448 3258 422 3245 
C 544 3790 915 4058 1306 4058 
C 1862 4058 2227 3617 2227 3035 
C 2227 2479 1901 2000 1536 1584 
L 262 146 
L 262 0 
L 2515 0 
L 2669 989 
z
" transform="scale(0.015625)"/>
       </defs>
       <use xlink:href="#CMR17-30" transform="scale(0.996264)"/>
       <use xlink:href="#CMMI12-3a" transform="translate(45.690477 0) scale(0.996264)"/>
       <use xlink:href="#CMR17-32" transform="translate(72.787654 0) scale(0.996264)"/>
      </g>
     </g>
    </g>
    <g id="ytick_3">
     <g id="line2d_7">
      <g>
       <use xlink:href="#mb70464e8a2" x="43.838278" y="138.861432" style="stroke: #000000; stroke-width: 0.8"/>
      </g>
     </g>
     <g id="text_8">
      <!-- $\mathdefault{0.4}$ -->
      <g transform="translate(19.387696 143.70437) scale(0.14 -0.14)">
       <defs>
        <path id="CMR17-34" d="M 2150 4122 
C 2150 4256 2144 4256 2029 4256 
L 128 1254 
L 128 1088 
L 1779 1088 
L 1779 457 
C 1779 224 1766 160 1318 160 
L 1197 160 
L 1197 0 
C 1402 0 1747 0 1965 0 
C 2182 0 2528 0 2733 0 
L 2733 160 
L 2611 160 
C 2163 160 2150 224 2150 457 
L 2150 1088 
L 2803 1088 
L 2803 1254 
L 2150 1254 
L 2150 4122 
z
M 1798 3703 
L 1798 1254 
L 256 1254 
L 1798 3703 
z
" transform="scale(0.015625)"/>
       </defs>
       <use xlink:href="#CMR17-30" transform="scale(0.996264)"/>
       <use xlink:href="#CMMI12-3a" transform="translate(45.690477 0) scale(0.996264)"/>
       <use xlink:href="#CMR17-34" transform="translate(72.787654 0) scale(0.996264)"/>
      </g>
     </g>
    </g>
    <g id="ytick_4">
     <g id="line2d_8">
      <g>
       <use xlink:href="#mb70464e8a2" x="43.838278" y="101.286873" style="stroke: #000000; stroke-width: 0.8"/>
      </g>
     </g>
     <g id="text_9">
      <!-- $\mathdefault{0.6}$ -->
      <g transform="translate(19.387696 106.129811) scale(0.14 -0.14)">
       <defs>
        <path id="CMR17-36" d="M 678 2176 
C 678 3690 1395 4032 1811 4032 
C 1946 4032 2272 4009 2400 3776 
C 2298 3776 2106 3776 2106 3553 
C 2106 3381 2246 3323 2336 3323 
C 2394 3323 2566 3348 2566 3560 
C 2566 3954 2246 4179 1805 4179 
C 1043 4179 243 3390 243 1984 
C 243 253 966 -128 1478 -128 
C 2099 -128 2688 427 2688 1283 
C 2688 2081 2170 2662 1517 2662 
C 1126 2662 838 2407 678 1960 
L 678 2176 
z
M 1478 25 
C 691 25 691 1200 691 1436 
C 691 1896 909 2560 1504 2560 
C 1613 2560 1926 2560 2138 2120 
C 2253 1870 2253 1609 2253 1289 
C 2253 944 2253 690 2118 434 
C 1978 171 1773 25 1478 25 
z
" transform="scale(0.015625)"/>
       </defs>
       <use xlink:href="#CMR17-30" transform="scale(0.996264)"/>
       <use xlink:href="#CMMI12-3a" transform="translate(45.690477 0) scale(0.996264)"/>
       <use xlink:href="#CMR17-36" transform="translate(72.787654 0) scale(0.996264)"/>
      </g>
     </g>
    </g>
    <g id="ytick_5">
     <g id="line2d_9">
      <g>
       <use xlink:href="#mb70464e8a2" x="43.838278" y="63.712313" style="stroke: #000000; stroke-width: 0.8"/>
      </g>
     </g>
     <g id="text_10">
      <!-- $\mathdefault{0.8}$ -->
      <g transform="translate(19.387696 68.555251) scale(0.14 -0.14)">
       <defs>
        <path id="CMR17-38" d="M 1741 2264 
C 2144 2467 2554 2773 2554 3263 
C 2554 3841 1990 4179 1472 4179 
C 890 4179 378 3759 378 3180 
C 378 3021 416 2747 666 2505 
C 730 2442 998 2251 1171 2130 
C 883 1983 211 1634 211 934 
C 211 279 838 -128 1459 -128 
C 2144 -128 2720 362 2720 1010 
C 2720 1590 2330 1857 2074 2029 
L 1741 2264 
z
M 902 2822 
C 851 2854 595 3051 595 3351 
C 595 3739 998 4032 1459 4032 
C 1965 4032 2336 3676 2336 3262 
C 2336 2669 1670 2331 1638 2331 
C 1632 2331 1626 2331 1574 2370 
L 902 2822 
z
M 2080 1519 
C 2176 1449 2483 1240 2483 851 
C 2483 381 2010 25 1472 25 
C 890 25 448 438 448 940 
C 448 1443 838 1862 1280 2060 
L 2080 1519 
z
" transform="scale(0.015625)"/>
       </defs>
       <use xlink:href="#CMR17-30" transform="scale(0.996264)"/>
       <use xlink:href="#CMMI12-3a" transform="translate(45.690477 0) scale(0.996264)"/>
       <use xlink:href="#CMR17-38" transform="translate(72.787654 0) scale(0.996264)"/>
      </g>
     </g>
    </g>
    <g id="ytick_6">
     <g id="line2d_10">
      <g>
       <use xlink:href="#mb70464e8a2" x="43.838278" y="26.137754" style="stroke: #000000; stroke-width: 0.8"/>
      </g>
     </g>
     <g id="text_11">
      <!-- $\mathdefault{1.0}$ -->
      <g transform="translate(19.387696 30.980692) scale(0.14 -0.14)">
       <use xlink:href="#CMR17-31" transform="scale(0.996264)"/>
       <use xlink:href="#CMMI12-3a" transform="translate(45.690477 0) scale(0.996264)"/>
       <use xlink:href="#CMR17-30" transform="translate(72.787654 0) scale(0.996264)"/>
      </g>
     </g>
    </g>
    <g id="text_12">
     <!-- position in dough, $x_n \in [0,1)$ -->
     <g transform="translate(11.900772 206.566601) rotate(-90) scale(0.14 -0.14)">
      <defs>
       <path id="CMR17-70" d="M 1408 -1063 
C 998 -1063 973 -1037 973 -789 
L 973 402 
C 1158 134 1427 -38 1766 -38 
C 2406 -38 3053 523 3053 1388 
C 3053 2191 2496 2802 1837 2802 
C 1453 2802 1139 2592 960 2338 
L 960 2802 
L 198 2732 
L 198 2567 
C 576 2567 634 2528 634 2223 
L 634 -789 
C 634 -1031 608 -1063 198 -1063 
L 198 -1228 
C 352 -1216 634 -1216 800 -1216 
C 966 -1216 1254 -1216 1408 -1228 
L 1408 -1063 
z
M 973 2012 
C 973 2102 973 2235 1222 2471 
C 1254 2497 1472 2688 1792 2688 
C 2259 2688 2643 2108 2643 1382 
C 2643 656 2234 64 1728 64 
C 1498 64 1248 172 1056 472 
C 973 612 973 650 973 752 
L 973 2012 
z
" transform="scale(0.015625)"/>
       <path id="CMR17-73" d="M 1978 2697 
C 1978 2813 1971 2819 1933 2819 
C 1907 2819 1901 2813 1824 2717 
C 1805 2691 1747 2626 1728 2601 
C 1523 2819 1235 2819 1126 2819 
C 416 2819 160 2447 160 2076 
C 160 1498 813 1365 998 1325 
C 1402 1243 1542 1217 1677 1101 
C 1760 1025 1901 884 1901 654 
C 1901 384 1747 38 1158 38 
C 602 38 403 460 288 1021 
C 269 1110 269 1117 218 1117 
C 166 1117 160 1110 160 983 
L 160 63 
C 160 -51 166 -58 205 -58 
C 237 -58 243 -51 275 0 
C 314 57 410 211 448 276 
C 576 103 800 -64 1158 -64 
C 1792 -64 2131 283 2131 784 
C 2131 1112 1958 1285 1875 1362 
C 1683 1561 1459 1606 1190 1657 
C 838 1735 390 1825 390 2217 
C 390 2383 480 2737 1126 2737 
C 1811 2737 1850 2094 1862 1888 
C 1869 1856 1901 1849 1920 1849 
C 1978 1849 1978 1869 1978 1978 
L 1978 2697 
z
" transform="scale(0.015625)"/>
       <path id="CMR17-69" d="M 992 3909 
C 992 4049 877 4170 730 4170 
C 589 4170 467 4056 467 3909 
C 467 3769 582 3648 730 3648 
C 870 3648 992 3763 992 3909 
z
M 243 2706 
L 243 2541 
C 602 2541 653 2502 653 2197 
L 653 427 
C 653 184 627 153 218 153 
L 218 -13 
C 371 0 646 0 806 0 
C 960 0 1222 0 1370 -13 
L 1370 153 
C 992 153 979 191 979 420 
L 979 2776 
L 243 2706 
z
" transform="scale(0.015625)"/>
       <path id="CMR17-74" d="M 966 2560 
L 1862 2560 
L 1862 2725 
L 966 2725 
L 966 3904 
L 851 3904 
C 838 3245 614 2668 70 2668 
L 70 2560 
L 627 2560 
L 627 771 
C 627 650 627 -64 1370 -64 
C 1747 -64 1965 306 1965 777 
L 1965 1140 
L 1850 1140 
L 1850 783 
C 1850 344 1677 51 1408 51 
C 1222 51 966 178 966 758 
L 966 2560 
z
" transform="scale(0.015625)"/>
       <path id="CMR17-67" d="M 710 1164 
C 832 1068 1043 960 1299 960 
C 1805 960 2240 1357 2240 1888 
C 2240 2054 2189 2310 1997 2509 
C 2176 2692 2438 2752 2586 2752 
C 2611 2752 2650 2752 2682 2734 
C 2656 2728 2598 2703 2598 2605 
C 2598 2527 2656 2471 2739 2471 
C 2835 2471 2886 2533 2886 2614 
C 2886 2731 2790 2854 2586 2854 
C 2330 2854 2106 2738 1926 2580 
C 1734 2753 1504 2816 1299 2816 
C 794 2816 358 2419 358 1888 
C 358 1522 570 1292 634 1228 
C 442 1004 442 743 442 711 
C 442 545 506 302 723 168 
C 390 85 128 -169 128 -486 
C 128 -943 736 -1280 1466 -1280 
C 2170 -1280 2803 -956 2803 -479 
C 2803 384 1856 384 1363 384 
C 1216 384 954 384 922 391 
C 723 423 589 602 589 826 
C 589 883 589 1024 710 1164 
z
M 1299 1068 
C 736 1068 736 1760 736 1889 
C 736 2016 736 2708 1299 2708 
C 1862 2708 1862 2016 1862 1889 
C 1862 1760 1862 1068 1299 1068 
z
M 1466 -1171 
C 826 -1171 384 -835 384 -486 
C 384 -289 493 -105 634 -4 
C 794 104 858 104 1293 104 
C 1818 104 2547 104 2547 -486 
C 2547 -835 2106 -1171 1466 -1171 
z
" transform="scale(0.015625)"/>
       <path id="CMR17-68" d="M 2656 1933 
C 2656 2259 2592 2790 1837 2790 
C 1312 2790 1056 2368 979 2157 
L 973 2157 
L 973 4396 
L 211 4326 
L 211 4160 
C 589 4160 646 4122 646 3817 
L 646 426 
C 646 184 621 153 211 153 
L 211 -13 
C 365 0 646 0 813 0 
C 979 0 1267 0 1421 -13 
L 1421 153 
C 1011 153 986 178 986 428 
L 986 1658 
C 986 2247 1344 2688 1792 2688 
C 2266 2688 2317 2266 2317 1958 
L 2317 428 
C 2317 184 2291 153 1882 153 
L 1882 -13 
C 2035 0 2317 0 2483 0 
C 2650 0 2938 0 3091 -13 
L 3091 153 
C 2682 153 2656 178 2656 428 
L 2656 1933 
z
" transform="scale(0.015625)"/>
       <path id="CMR17-2c" d="M 1011 102 
C 1024 45 1024 25 1024 -77 
C 1024 -463 896 -817 627 -1139 
C 595 -1170 595 -1183 595 -1197 
C 595 -1222 621 -1248 646 -1248 
C 685 -1248 1126 -799 1126 -87 
C 1126 124 1101 522 800 522 
C 659 522 538 427 538 261 
C 538 96 659 0 800 0 
C 877 0 960 32 1011 102 
z
" transform="scale(0.015625)"/>
       <path id="CMMI12-78" d="M 3034 2606 
C 2829 2567 2752 2414 2752 2293 
C 2752 2139 2874 2088 2963 2088 
C 3155 2088 3290 2254 3290 2427 
C 3290 2695 2982 2816 2714 2816 
C 2323 2816 2106 2433 2048 2312 
C 1901 2816 1504 2816 1389 2816 
C 736 2816 390 1980 390 1839 
C 390 1814 416 1782 461 1782 
C 512 1782 525 1820 538 1846 
C 755 2555 1184 2689 1370 2689 
C 1658 2689 1715 2420 1715 2267 
C 1715 2127 1677 1980 1600 1673 
L 1382 798 
C 1286 415 1101 64 762 64 
C 730 64 570 64 435 147 
C 666 192 717 383 717 460 
C 717 588 621 664 499 664 
C 346 664 179 530 179 326 
C 179 57 480 -64 755 -64 
C 1062 -64 1280 179 1414 441 
C 1517 64 1837 -64 2074 -64 
C 2726 -64 3072 773 3072 913 
C 3072 945 3046 971 3008 971 
C 2950 971 2944 939 2925 888 
C 2752 326 2381 64 2093 64 
C 1869 64 1747 230 1747 492 
C 1747 632 1773 734 1875 1156 
L 2099 2024 
C 2195 2408 2413 2689 2707 2689 
C 2720 2689 2899 2689 3034 2606 
z
" transform="scale(0.015625)"/>
       <path id="CMSY10-32" d="M 3506 1472 
C 3615 1472 3730 1472 3730 1600 
C 3730 1728 3615 1728 3506 1728 
L 792 1728 
C 869 2586 1605 3200 2507 3200 
L 3506 3200 
C 3615 3200 3730 3200 3730 3328 
C 3730 3456 3615 3456 3506 3456 
L 2495 3456 
C 1400 3456 530 2624 530 1600 
C 530 576 1400 -256 2495 -256 
L 3506 -256 
C 3615 -256 3730 -256 3730 -128 
C 3730 0 3615 0 3506 0 
L 2507 0 
C 1605 0 869 614 792 1472 
L 3506 1472 
z
" transform="scale(0.015625)"/>
       <path id="CMR17-5b" d="M 1504 -1600 
L 1504 -1377 
L 902 -1377 
L 902 4544 
L 1504 4544 
L 1504 4767 
L 678 4767 
L 678 -1600 
L 1504 -1600 
z
" transform="scale(0.015625)"/>
       <path id="CMMI12-3b" d="M 1248 -31 
C 1248 343 1126 619 864 619 
C 659 619 557 453 557 313 
C 557 172 653 0 870 0 
C 954 0 1024 26 1082 83 
C 1094 96 1101 96 1107 96 
C 1120 96 1120 5 1120 -27 
C 1120 -240 1082 -659 710 -1080 
C 640 -1157 640 -1170 640 -1183 
C 640 -1216 672 -1248 704 -1248 
C 755 -1248 1248 -771 1248 -31 
z
" transform="scale(0.015625)"/>
       <path id="CMR17-29" d="M 1683 1581 
C 1683 2040 1638 2817 1254 3639 
C 947 4303 422 4768 346 4768 
C 326 4768 301 4761 301 4729 
C 301 4717 307 4710 314 4697 
C 621 4378 1402 3568 1402 1584 
C 1402 -407 627 -1217 314 -1537 
C 307 -1549 301 -1556 301 -1568 
C 301 -1600 326 -1600 346 -1600 
C 416 -1600 960 -1128 1274 -426 
C 1594 281 1683 969 1683 1581 
z
" transform="scale(0.015625)"/>
      </defs>
      <use xlink:href="#CMR17-70" transform="scale(0.996264)"/>
      <use xlink:href="#CMR17-6f" transform="translate(53.497809 0) scale(0.996264)"/>
      <use xlink:href="#CMR17-73" transform="translate(99.188286 0) scale(0.996264)"/>
      <use xlink:href="#CMR17-69" transform="translate(134.989623 0) scale(0.996264)"/>
      <use xlink:href="#CMR17-74" transform="translate(159.860682 0) scale(0.996264)"/>
      <use xlink:href="#CMR17-69" transform="translate(195.14145 0) scale(0.996264)"/>
      <use xlink:href="#CMR17-6f" transform="translate(220.012508 0) scale(0.996264)"/>
      <use xlink:href="#CMR17-6e" transform="translate(265.702985 0) scale(0.996264)"/>
      <use xlink:href="#CMR17-69" transform="translate(346.674321 0) scale(0.996264)"/>
      <use xlink:href="#CMR17-6e" transform="translate(371.54538 0) scale(0.996264)"/>
      <use xlink:href="#CMR17-64" transform="translate(452.516716 0) scale(0.996264)"/>
      <use xlink:href="#CMR17-6f" transform="translate(503.412086 0) scale(0.996264)"/>
      <use xlink:href="#CMR17-75" transform="translate(549.102563 0) scale(0.996264)"/>
      <use xlink:href="#CMR17-67" transform="translate(599.997933 0) scale(0.996264)"/>
      <use xlink:href="#CMR17-68" transform="translate(645.68841 0) scale(0.996264)"/>
      <use xlink:href="#CMR17-2c" transform="translate(696.583779 0) scale(0.996264)"/>
      <use xlink:href="#CMMI12-78" transform="translate(751.530804 0) scale(0.996264)"/>
      <use xlink:href="#CMMI12-6e" transform="translate(806.964864 -14.943915) scale(0.697382)"/>
      <use xlink:href="#CMSY10-32" transform="translate(875.897848 0) scale(0.996264)"/>
      <use xlink:href="#CMR17-5b" transform="translate(969.989675 0) scale(0.996264)"/>
      <use xlink:href="#CMR17-30" transform="translate(994.860733 0) scale(0.996264)"/>
      <use xlink:href="#CMMI12-3b" transform="translate(1040.551211 0) scale(0.996264)"/>
      <use xlink:href="#CMR17-31" transform="translate(1084.252793 0) scale(0.996264)"/>
      <use xlink:href="#CMR17-29" transform="translate(1129.94327 0) scale(0.996264)"/>
     </g>
    </g>
   </g>
   <g id="line2d_11">
    <path d="M 56.220442 176.435991 
L 69.978403 138.861432 
L 83.736363 63.712313 
L 97.494323 101.286873 
L 111.252284 176.435991 
L 125.010244 138.861432 
L 138.768204 63.712313 
L 152.526164 101.286873 
L 166.284125 176.435991 
L 180.042085 138.861432 
L 193.800045 63.712313 
L 207.558005 101.286873 
L 221.315966 176.435991 
L 235.073926 138.861432 
L 248.831886 63.712313 
L 262.589846 101.286873 
L 276.347807 176.435991 
L 290.105767 138.861432 
L 303.863727 63.712313 
" clip-path="url(#p3706908b44)" style="fill: none; stroke: #02785f; stroke-linecap: square"/>
    <defs>
     <path id="mcf7773e278" d="M 0 2 
C 0.530406 2 1.03916 1.789267 1.414214 1.414214 
C 1.789267 1.03916 2 0.530406 2 0 
C 2 -0.530406 1.789267 -1.03916 1.414214 -1.414214 
C 1.03916 -1.789267 0.530406 -2 0 -2 
C -0.530406 -2 -1.03916 -1.789267 -1.414214 -1.414214 
C -1.789267 -1.03916 -2 -0.530406 -2 0 
C -2 0.530406 -1.789267 1.03916 -1.414214 1.414214 
C -1.03916 1.789267 -0.530406 2 0 2 
z
" style="stroke: #02785f; stroke-width: 0.8"/>
    </defs>
    <g clip-path="url(#p3706908b44)">
     <use xlink:href="#mcf7773e278" x="56.220442" y="176.435991" style="fill: #02785f; stroke: #02785f; stroke-width: 0.8"/>
     <use xlink:href="#mcf7773e278" x="69.978403" y="138.861432" style="fill: #02785f; stroke: #02785f; stroke-width: 0.8"/>
     <use xlink:href="#mcf7773e278" x="83.736363" y="63.712313" style="fill: #02785f; stroke: #02785f; stroke-width: 0.8"/>
     <use xlink:href="#mcf7773e278" x="97.494323" y="101.286873" style="fill: #02785f; stroke: #02785f; stroke-width: 0.8"/>
     <use xlink:href="#mcf7773e278" x="111.252284" y="176.435991" style="fill: #02785f; stroke: #02785f; stroke-width: 0.8"/>
     <use xlink:href="#mcf7773e278" x="125.010244" y="138.861432" style="fill: #02785f; stroke: #02785f; stroke-width: 0.8"/>
     <use xlink:href="#mcf7773e278" x="138.768204" y="63.712313" style="fill: #02785f; stroke: #02785f; stroke-width: 0.8"/>
     <use xlink:href="#mcf7773e278" x="152.526164" y="101.286873" style="fill: #02785f; stroke: #02785f; stroke-width: 0.8"/>
     <use xlink:href="#mcf7773e278" x="166.284125" y="176.435991" style="fill: #02785f; stroke: #02785f; stroke-width: 0.8"/>
     <use xlink:href="#mcf7773e278" x="180.042085" y="138.861432" style="fill: #02785f; stroke: #02785f; stroke-width: 0.8"/>
     <use xlink:href="#mcf7773e278" x="193.800045" y="63.712313" style="fill: #02785f; stroke: #02785f; stroke-width: 0.8"/>
     <use xlink:href="#mcf7773e278" x="207.558005" y="101.286873" style="fill: #02785f; stroke: #02785f; stroke-width: 0.8"/>
     <use xlink:href="#mcf7773e278" x="221.315966" y="176.435991" style="fill: #02785f; stroke: #02785f; stroke-width: 0.8"/>
     <use xlink:href="#mcf7773e278" x="235.073926" y="138.861432" style="fill: #02785f; stroke: #02785f; stroke-width: 0.8"/>
     <use xlink:href="#mcf7773e278" x="248.831886" y="63.712313" style="fill: #02785f; stroke: #02785f; stroke-width: 0.8"/>
     <use xlink:href="#mcf7773e278" x="262.589846" y="101.286873" style="fill: #02785f; stroke: #02785f; stroke-width: 0.8"/>
     <use xlink:href="#mcf7773e278" x="276.347807" y="176.435991" style="fill: #02785f; stroke: #02785f; stroke-width: 0.8"/>
     <use xlink:href="#mcf7773e278" x="290.105767" y="138.861432" style="fill: #02785f; stroke: #02785f; stroke-width: 0.8"/>
     <use xlink:href="#mcf7773e278" x="303.863727" y="63.712313" style="fill: #02785f; stroke: #02785f; stroke-width: 0.8"/>
    </g>
   </g>
   <g id="line2d_12">
    <path d="M 56.220442 176.435803 
L 69.978403 138.861056 
L 83.736363 63.711562 
L 97.494323 101.28537 
L 111.252284 176.432985 
L 125.010244 138.85542 
L 138.768204 63.700289 
L 152.526164 101.262825 
L 166.284125 176.387896 
L 180.042085 138.765241 
L 193.800045 63.519931 
L 207.558005 100.902109 
L 221.315966 175.666464 
L 235.073926 137.322378 
L 248.831886 60.634205 
L 262.589846 95.130657 
L 276.347807 164.12356 
L 290.105767 114.236569 
L 303.863727 202.335383 
" clip-path="url(#p3706908b44)" style="fill: none; stroke: #c0392b; stroke-linecap: square"/>
    <defs>
     <path id="m6772e9e850" d="M 0 2 
C 0.530406 2 1.03916 1.789267 1.414214 1.414214 
C 1.789267 1.03916 2 0.530406 2 0 
C 2 -0.530406 1.789267 -1.03916 1.414214 -1.414214 
C 1.03916 -1.789267 0.530406 -2 0 -2 
C -0.530406 -2 -1.03916 -1.789267 -1.414214 -1.414214 
C -1.789267 -1.03916 -2 -0.530406 -2 0 
C -2 0.530406 -1.789267 1.03916 -1.414214 1.414214 
C -1.03916 1.789267 -0.530406 2 0 2 
z
" style="stroke: #c0392b; stroke-width: 0.8"/>
    </defs>
    <g clip-path="url(#p3706908b44)">
     <use xlink:href="#m6772e9e850" x="56.220442" y="176.435803" style="fill: #c0392b; stroke: #c0392b; stroke-width: 0.8"/>
     <use xlink:href="#m6772e9e850" x="69.978403" y="138.861056" style="fill: #c0392b; stroke: #c0392b; stroke-width: 0.8"/>
     <use xlink:href="#m6772e9e850" x="83.736363" y="63.711562" style="fill: #c0392b; stroke: #c0392b; stroke-width: 0.8"/>
     <use xlink:href="#m6772e9e850" x="97.494323" y="101.28537" style="fill: #c0392b; stroke: #c0392b; stroke-width: 0.8"/>
     <use xlink:href="#m6772e9e850" x="111.252284" y="176.432985" style="fill: #c0392b; stroke: #c0392b; stroke-width: 0.8"/>
     <use xlink:href="#m6772e9e850" x="125.010244" y="138.85542" style="fill: #c0392b; stroke: #c0392b; stroke-width: 0.8"/>
     <use xlink:href="#m6772e9e850" x="138.768204" y="63.700289" style="fill: #c0392b; stroke: #c0392b; stroke-width: 0.8"/>
     <use xlink:href="#m6772e9e850" x="152.526164" y="101.262825" style="fill: #c0392b; stroke: #c0392b; stroke-width: 0.8"/>
     <use xlink:href="#m6772e9e850" x="166.284125" y="176.387896" style="fill: #c0392b; stroke: #c0392b; stroke-width: 0.8"/>
     <use xlink:href="#m6772e9e850" x="180.042085" y="138.765241" style="fill: #c0392b; stroke: #c0392b; stroke-width: 0.8"/>
     <use xlink:href="#m6772e9e850" x="193.800045" y="63.519931" style="fill: #c0392b; stroke: #c0392b; stroke-width: 0.8"/>
     <use xlink:href="#m6772e9e850" x="207.558005" y="100.902109" style="fill: #c0392b; stroke: #c0392b; stroke-width: 0.8"/>
     <use xlink:href="#m6772e9e850" x="221.315966" y="175.666464" style="fill: #c0392b; stroke: #c0392b; stroke-width: 0.8"/>
     <use xlink:href="#m6772e9e850" x="235.073926" y="137.322378" style="fill: #c0392b; stroke: #c0392b; stroke-width: 0.8"/>
     <use xlink:href="#m6772e9e850" x="248.831886" y="60.634205" style="fill: #c0392b; stroke: #c0392b; stroke-width: 0.8"/>
     <use xlink:href="#m6772e9e850" x="262.589846" y="95.130657" style="fill: #c0392b; stroke: #c0392b; stroke-width: 0.8"/>
     <use xlink:href="#m6772e9e850" x="276.347807" y="164.12356" style="fill: #c0392b; stroke: #c0392b; stroke-width: 0.8"/>
     <use xlink:href="#m6772e9e850" x="290.105767" y="114.236569" style="fill: #c0392b; stroke: #c0392b; stroke-width: 0.8"/>
     <use xlink:href="#m6772e9e850" x="303.863727" y="202.335383" style="fill: #c0392b; stroke: #c0392b; stroke-width: 0.8"/>
    </g>
   </g>
   <g id="patch_3">
    <path d="M 43.838278 223.40419 
L 43.838278 16.744114 
" style="fill: none; stroke: #000000; stroke-width: 0.8; stroke-linejoin: miter; stroke-linecap: square"/>
   </g>
   <g id="patch_4">
    <path d="M 43.838278 223.40419 
L 316.245892 223.40419 
" style="fill: none; stroke: #000000; stroke-width: 0.8; stroke-linejoin: miter; stroke-linecap: square"/>
   </g>
   <g id="text_13">
    <!-- Two specks of cardamom, folded $n$ times -->
    <g transform="translate(43.838278 10.744114) scale(0.11 -0.11)">
     <defs>
      <path id="CMR17-54" d="M 3981 4326 
L 288 4326 
L 179 2918 
L 294 2918 
C 378 3976 467 4160 1453 4160 
C 1568 4160 1754 4160 1805 4154 
C 1926 4135 1926 4058 1926 3912 
L 1926 459 
C 1926 230 1907 160 1376 160 
L 1197 160 
L 1197 0 
C 1504 0 1824 0 2138 0 
C 2451 0 2771 0 3078 0 
L 3078 160 
L 2899 160 
C 2368 160 2349 230 2349 459 
L 2349 3912 
C 2349 4052 2349 4129 2464 4154 
C 2515 4160 2701 4160 2816 4160 
C 3795 4160 3891 3976 3974 2918 
L 4090 2918 
L 3981 4326 
z
" transform="scale(0.015625)"/>
      <path id="CMR17-77" d="M 3725 2183 
C 3853 2560 4109 2560 4205 2560 
L 4205 2732 
C 4077 2732 3949 2732 3821 2732 
C 3699 2732 3424 2732 3315 2738 
L 3315 2560 
C 3514 2560 3622 2445 3622 2286 
C 3622 2241 3610 2184 3597 2140 
L 2995 407 
L 2342 2275 
C 2330 2319 2310 2370 2310 2395 
C 2310 2560 2528 2560 2630 2560 
L 2630 2738 
C 2483 2732 2214 2732 2061 2732 
C 1901 2732 1734 2732 1587 2738 
L 1587 2560 
C 1939 2560 1939 2547 2074 2149 
L 1485 451 
L 851 2281 
C 819 2363 819 2376 819 2395 
C 819 2560 1037 2560 1139 2560 
L 1139 2738 
C 986 2732 717 2732 557 2732 
C 416 2732 198 2732 64 2738 
L 64 2560 
C 346 2560 416 2541 486 2331 
L 1274 49 
C 1299 -33 1318 -52 1370 -52 
C 1414 -52 1440 -39 1472 56 
L 2131 1980 
L 2797 56 
C 2829 -39 2854 -52 2899 -52 
C 2950 -52 2970 -33 2995 50 
L 3725 2183 
z
" transform="scale(0.015625)"/>
      <path id="CMR17-63" d="M 2234 2240 
C 2112 2240 1933 2240 1933 2017 
C 1933 1838 2080 1787 2163 1787 
C 2208 1787 2394 1807 2394 2024 
C 2394 2467 1958 2803 1466 2803 
C 787 2803 211 2178 211 1363 
C 211 516 813 -64 1466 -64 
C 2259 -64 2458 677 2458 748 
C 2458 774 2451 793 2406 793 
C 2362 793 2355 787 2330 703 
C 2163 180 1798 51 1523 51 
C 1114 51 621 427 621 1369 
C 621 2338 1094 2688 1472 2688 
C 1722 2688 2093 2573 2234 2240 
z
" transform="scale(0.015625)"/>
      <path id="CMR17-6b" d="M 1670 1673 
C 1664 1686 1632 1724 1632 1743 
C 1632 1756 2086 2171 2144 2222 
C 2509 2528 2739 2560 2906 2560 
L 2906 2733 
C 2867 2733 2854 2733 2848 2720 
L 2534 2720 
C 2355 2720 2080 2720 1907 2733 
L 1907 2566 
C 1997 2559 2061 2508 2061 2419 
C 2061 2291 1933 2170 1926 2170 
L 960 1289 
L 960 4396 
L 198 4326 
L 198 4160 
C 576 4160 634 4122 634 3817 
L 634 426 
C 634 184 608 153 198 153 
L 198 -13 
C 352 0 634 0 794 0 
C 954 0 1235 0 1389 -13 
L 1389 153 
C 979 153 954 178 954 428 
L 954 1130 
L 1395 1532 
L 2042 574 
C 2118 459 2182 369 2182 286 
C 2182 172 2067 153 1990 153 
L 1990 -13 
C 2144 0 2419 0 2579 0 
C 2694 0 2931 0 3040 0 
L 3040 153 
C 2739 153 2669 210 2477 491 
L 1670 1673 
z
" transform="scale(0.015625)"/>
      <path id="CMR17-61" d="M 2304 1653 
C 2304 2072 2304 2294 2035 2543 
C 1798 2752 1523 2816 1306 2816 
C 800 2816 435 2407 435 1971 
C 435 1728 627 1728 666 1728 
C 749 1728 896 1778 896 1954 
C 896 2112 774 2181 666 2181 
C 640 2181 608 2174 589 2168 
C 723 2592 1069 2714 1293 2714 
C 1613 2714 1965 2429 1965 1885 
L 1965 1600 
C 1587 1600 1133 1549 774 1357 
C 371 1133 256 813 256 570 
C 256 77 832 -64 1171 -64 
C 1523 -64 1850 139 1990 511 
C 2003 233 2182 -18 2464 -18 
C 2598 -18 2938 70 2938 567 
L 2938 920 
L 2822 920 
L 2822 562 
C 2822 178 2650 128 2566 128 
C 2304 128 2304 458 2304 738 
L 2304 1653 
z
M 1965 870 
C 1965 317 1568 38 1216 38 
C 896 38 646 275 646 570 
C 646 761 730 1100 1101 1305 
C 1408 1478 1760 1504 1965 1504 
L 1965 870 
z
" transform="scale(0.015625)"/>
     </defs>
     <use xlink:href="#CMR17-54" transform="scale(0.996264)"/>
     <use xlink:href="#CMR17-77" transform="translate(66.509881 0) scale(0.996264)"/>
     <use xlink:href="#CMR17-6f" transform="translate(130.417307 0) scale(0.996264)"/>
     <use xlink:href="#CMR17-73" transform="translate(206.183751 0) scale(0.996264)"/>
     <use xlink:href="#CMR17-70" transform="translate(241.985088 0) scale(0.996264)"/>
     <use xlink:href="#CMR17-65" transform="translate(295.482897 0) scale(0.996264)"/>
     <use xlink:href="#CMR17-63" transform="translate(335.968557 0) scale(0.996264)"/>
     <use xlink:href="#CMR17-6b" transform="translate(373.851764 0) scale(0.996264)"/>
     <use xlink:href="#CMR17-73" transform="translate(422.14468 0) scale(0.996264)"/>
     <use xlink:href="#CMR17-6f" transform="translate(488.021984 0) scale(0.996264)"/>
     <use xlink:href="#CMR17-66" transform="translate(533.712461 0) scale(0.996264)"/>
     <use xlink:href="#CMR17-63" transform="translate(591.261939 0) scale(0.996264)"/>
     <use xlink:href="#CMR17-61" transform="translate(631.7476 0) scale(0.996264)"/>
     <use xlink:href="#CMR17-72" transform="translate(677.438077 0) scale(0.996264)"/>
     <use xlink:href="#CMR17-64" transform="translate(712.718845 0) scale(0.996264)"/>
     <use xlink:href="#CMR17-61" transform="translate(763.614215 0) scale(0.996264)"/>
     <use xlink:href="#CMR17-6d" transform="translate(809.304692 0) scale(0.996264)"/>
     <use xlink:href="#CMR17-6f" transform="translate(886.224282 0) scale(0.996264)"/>
     <use xlink:href="#CMR17-6d" transform="translate(931.914759 0) scale(0.996264)"/>
     <use xlink:href="#CMR17-2c" transform="translate(1008.834349 0) scale(0.996264)"/>
     <use xlink:href="#CMR17-66" transform="translate(1063.781373 0) scale(0.996264)"/>
     <use xlink:href="#CMR17-6f" transform="translate(1091.254886 0) scale(0.996264)"/>
     <use xlink:href="#CMR17-6c" transform="translate(1136.945363 0) scale(0.996264)"/>
     <use xlink:href="#CMR17-64" transform="translate(1161.816421 0) scale(0.996264)"/>
     <use xlink:href="#CMR17-65" transform="translate(1212.711791 0) scale(0.996264)"/>
     <use xlink:href="#CMR17-64" transform="translate(1253.197452 0) scale(0.996264)"/>
     <use xlink:href="#CMMI12-6e" transform="translate(1334.168788 0) scale(0.996264)"/>
     <use xlink:href="#CMR17-74" transform="translate(1422.474802 0) scale(0.996264)"/>
     <use xlink:href="#CMR17-69" transform="translate(1457.755569 0) scale(0.996264)"/>
     <use xlink:href="#CMR17-6d" transform="translate(1482.626628 0) scale(0.996264)"/>
     <use xlink:href="#CMR17-65" transform="translate(1559.546218 0) scale(0.996264)"/>
     <use xlink:href="#CMR17-73" transform="translate(1600.031878 0) scale(0.996264)"/>
    </g>
   </g>
   <g id="legend_1">
    <g id="patch_5">
     <path d="M 212.776696 49.031038 
L 309.945892 49.031038 
Q 311.745892 49.031038 311.745892 47.231038 
L 311.745892 23.044114 
Q 311.745892 21.244114 309.945892 21.244114 
L 212.776696 21.244114 
Q 210.976696 21.244114 210.976696 23.044114 
L 210.976696 47.231038 
Q 210.976696 49.031038 212.776696 49.031038 
z
" style="fill: #ffffff; opacity: 0.8; stroke: #cccccc; stroke-linejoin: miter"/>
    </g>
    <g id="line2d_13">
     <path d="M 214.576696 27.994114 
L 223.576696 27.994114 
L 232.576696 27.994114 
" style="fill: none; stroke: #02785f; stroke-linecap: square"/>
     <g>
      <use xlink:href="#mcf7773e278" x="223.576696" y="27.994114" style="fill: #02785f; stroke: #02785f; stroke-width: 0.8"/>
     </g>
    </g>
    <g id="text_14">
     <!-- $x_n$ -->
     <g transform="translate(239.776696 31.144114) scale(0.09 -0.09)">
      <use xlink:href="#CMMI12-78" transform="scale(0.996264)"/>
      <use xlink:href="#CMMI12-6e" transform="translate(55.43406 -14.943915) scale(0.697382)"/>
     </g>
    </g>
    <g id="line2d_14">
     <path d="M 214.576696 40.537576 
L 223.576696 40.537576 
L 232.576696 40.537576 
" style="fill: none; stroke: #c0392b; stroke-linecap: square"/>
     <g>
      <use xlink:href="#m6772e9e850" x="223.576696" y="40.537576" style="fill: #c0392b; stroke: #c0392b; stroke-width: 0.8"/>
     </g>
    </g>
    <g id="text_15">
     <!-- $x_n+\epsilon$ trajectory -->
     <g transform="translate(239.776696 43.687576) scale(0.09 -0.09)">
      <defs>
       <path id="CMR17-2b" d="M 2413 1472 
L 4109 1472 
C 4198 1472 4307 1472 4307 1580 
C 4307 1695 4205 1695 4109 1695 
L 2413 1695 
L 2413 3386 
C 2413 3475 2413 3584 2304 3584 
C 2189 3584 2189 3482 2189 3386 
L 2189 1695 
L 493 1695 
C 403 1695 294 1695 294 1587 
C 294 1472 397 1472 493 1472 
L 2189 1472 
L 2189 -218 
C 2189 -307 2189 -416 2298 -416 
C 2413 -416 2413 -314 2413 -218 
L 2413 1472 
z
" transform="scale(0.015625)"/>
       <path id="CMMI12-f" d="M 1862 1467 
C 1958 1467 2067 1467 2067 1569 
C 2067 1652 2003 1652 1888 1652 
L 851 1652 
C 1011 2226 1389 2573 1958 2573 
L 2144 2573 
C 2253 2573 2349 2573 2349 2675 
C 2349 2758 2278 2758 2163 2758 
L 1946 2758 
C 1158 2758 294 2131 294 1126 
C 294 416 774 -64 1408 -64 
C 1818 -64 2221 194 2221 258 
C 2221 296 2202 336 2163 336 
C 2144 336 2131 329 2099 304 
C 1856 142 1619 64 1427 64 
C 1088 64 730 290 730 918 
C 730 1040 742 1208 800 1467 
L 1862 1467 
z
" transform="scale(0.015625)"/>
       <path id="CMR17-6a" d="M 1165 3963 
C 1165 4103 1050 4224 902 4224 
C 762 4224 640 4110 640 3963 
C 640 3823 755 3702 902 3702 
C 1043 3702 1165 3817 1165 3963 
z
M 365 2754 
L 365 2588 
C 787 2588 838 2543 838 2235 
L 838 -359 
C 838 -678 781 -1178 403 -1178 
C 358 -1178 186 -1178 45 -1082 
C 90 -1075 250 -1031 250 -851 
C 250 -729 166 -621 19 -621 
C -122 -621 -211 -717 -211 -858 
C -211 -1114 70 -1280 397 -1280 
C 838 -1280 1165 -877 1165 -332 
L 1165 2825 
L 365 2754 
z
" transform="scale(0.015625)"/>
       <path id="CMR17-79" d="M 2496 2197 
C 2656 2586 2944 2586 3034 2586 
L 3034 2752 
C 2912 2752 2752 2752 2630 2752 
C 2496 2752 2285 2752 2157 2758 
L 2157 2592 
C 2400 2573 2406 2394 2406 2343 
C 2406 2280 2394 2248 2362 2171 
L 1664 449 
L 902 2306 
C 870 2382 870 2426 870 2433 
C 870 2573 1018 2586 1171 2586 
L 1171 2758 
C 1018 2752 742 2752 582 2752 
C 410 2752 205 2752 64 2758 
L 64 2586 
C 410 2586 448 2554 531 2350 
L 1485 15 
C 1197 -738 1030 -1178 627 -1178 
C 557 -1178 397 -1159 282 -1044 
C 429 -1031 493 -942 493 -833 
C 493 -725 416 -629 288 -629 
C 147 -629 77 -725 77 -840 
C 77 -1095 339 -1280 627 -1280 
C 998 -1280 1229 -922 1357 -604 
L 2496 2197 
z
" transform="scale(0.015625)"/>
      </defs>
      <use xlink:href="#CMMI12-78" transform="scale(0.996264)"/>
      <use xlink:href="#CMMI12-6e" transform="translate(55.43406 -14.943915) scale(0.697382)"/>
      <use xlink:href="#CMR17-2b" transform="translate(118.832242 0) scale(0.996264)"/>
      <use xlink:href="#CMMI12-f" transform="translate(212.686237 0) scale(0.996264)"/>
      <use xlink:href="#CMR17-74" transform="translate(282.151162 0) scale(0.996264)"/>
      <use xlink:href="#CMR17-72" transform="translate(317.431929 0) scale(0.996264)"/>
      <use xlink:href="#CMR17-61" transform="translate(352.712697 0) scale(0.996264)"/>
      <use xlink:href="#CMR17-6a" transform="translate(403.607976 0) scale(0.996264)"/>
      <use xlink:href="#CMR17-65" transform="translate(431.081488 0) scale(0.996264)"/>
      <use xlink:href="#CMR17-63" transform="translate(471.567149 0) scale(0.996264)"/>
      <use xlink:href="#CMR17-74" transform="translate(512.052809 0) scale(0.996264)"/>
      <use xlink:href="#CMR17-6f" transform="translate(547.333577 0) scale(0.996264)"/>
      <use xlink:href="#CMR17-72" transform="translate(593.024054 0) scale(0.996264)"/>
      <use xlink:href="#CMR17-79" transform="translate(628.304822 0) scale(0.996264)"/>
     </g>
    </g>
   </g>
  </g>
  <g id="axes_2">
   <g id="patch_6">
    <path d="M 382.792387 223.40419 
L 655.2 223.40419 
L 655.2 16.744114 
L 382.792387 16.744114 
z
" style="fill: #ffffff"/>
   </g>
   <g id="matplotlib.axis_3">
    <g id="xtick_5">
     <g id="line2d_15">
      <g>
       <use xlink:href="#mbe11b8b060" x="395.174551" y="223.40419" style="stroke: #000000; stroke-width: 0.8"/>
      </g>
     </g>
     <g id="text_16">
      <!-- $\mathdefault{0}$ -->
      <g transform="translate(391.760307 240.090067) scale(0.14 -0.14)">
       <use xlink:href="#CMR17-30" transform="scale(0.996264)"/>
      </g>
     </g>
    </g>
    <g id="xtick_6">
     <g id="line2d_16">
      <g>
       <use xlink:href="#mbe11b8b060" x="463.964352" y="223.40419" style="stroke: #000000; stroke-width: 0.8"/>
      </g>
     </g>
     <g id="text_17">
      <!-- $\mathdefault{5}$ -->
      <g transform="translate(460.550108 240.090067) scale(0.14 -0.14)">
       <use xlink:href="#CMR17-35" transform="scale(0.996264)"/>
      </g>
     </g>
    </g>
    <g id="xtick_7">
     <g id="line2d_17">
      <g>
       <use xlink:href="#mbe11b8b060" x="532.754154" y="223.40419" style="stroke: #000000; stroke-width: 0.8"/>
      </g>
     </g>
     <g id="text_18">
      <!-- $\mathdefault{10}$ -->
      <g transform="translate(525.925665 240.090067) scale(0.14 -0.14)">
       <use xlink:href="#CMR17-31" transform="scale(0.996264)"/>
       <use xlink:href="#CMR17-30" transform="translate(45.690477 0) scale(0.996264)"/>
      </g>
     </g>
    </g>
    <g id="xtick_8">
     <g id="line2d_18">
      <g>
       <use xlink:href="#mbe11b8b060" x="601.543955" y="223.40419" style="stroke: #000000; stroke-width: 0.8"/>
      </g>
     </g>
     <g id="text_19">
      <!-- $\mathdefault{15}$ -->
      <g transform="translate(594.715466 240.090067) scale(0.14 -0.14)">
       <use xlink:href="#CMR17-31" transform="scale(0.996264)"/>
       <use xlink:href="#CMR17-35" transform="translate(45.690477 0) scale(0.996264)"/>
      </g>
     </g>
    </g>
    <g id="text_20">
     <!-- fold number $n$ -->
     <g transform="translate(476.604685 256.487972) scale(0.14 -0.14)">
      <use xlink:href="#CMR17-66" transform="scale(0.996264)"/>
      <use xlink:href="#CMR17-6f" transform="translate(27.473512 0) scale(0.996264)"/>
      <use xlink:href="#CMR17-6c" transform="translate(73.16399 0) scale(0.996264)"/>
      <use xlink:href="#CMR17-64" transform="translate(98.035048 0) scale(0.996264)"/>
      <use xlink:href="#CMR17-6e" transform="translate(179.006384 0) scale(0.996264)"/>
      <use xlink:href="#CMR17-75" transform="translate(227.2993 0) scale(0.996264)"/>
      <use xlink:href="#CMR17-6d" transform="translate(278.19467 0) scale(0.996264)"/>
      <use xlink:href="#CMR17-62" transform="translate(352.511806 0) scale(0.996264)"/>
      <use xlink:href="#CMR17-65" transform="translate(406.009614 0) scale(0.996264)"/>
      <use xlink:href="#CMR17-72" transform="translate(446.495275 0) scale(0.996264)"/>
      <use xlink:href="#CMMI12-6e" transform="translate(511.852009 0) scale(0.996264)"/>
     </g>
    </g>
   </g>
   <g id="matplotlib.axis_4">
    <g id="ytick_7">
     <g id="line2d_19">
      <g>
       <use xlink:href="#mb70464e8a2" x="382.792387" y="214.010551" style="stroke: #000000; stroke-width: 0.8"/>
      </g>
     </g>
     <g id="text_21">
      <!-- $\mathdefault{10^{-6}}$ -->
      <g transform="translate(349.313588 218.853489) scale(0.14 -0.14)">
       <defs>
        <path id="CMSY10-0" d="M 4218 1472 
C 4326 1472 4442 1472 4442 1600 
C 4442 1728 4326 1728 4218 1728 
L 755 1728 
C 646 1728 531 1728 531 1600 
C 531 1472 646 1472 755 1472 
L 4218 1472 
z
" transform="scale(0.015625)"/>
       </defs>
       <use xlink:href="#CMR17-31" transform="scale(0.996264)"/>
       <use xlink:href="#CMR17-30" transform="translate(45.690477 0) scale(0.996264)"/>
       <use xlink:href="#CMSY10-0" transform="translate(91.380954 36.153639) scale(0.697382)"/>
       <use xlink:href="#CMR17-36" transform="translate(145.621947 36.153639) scale(0.697382)"/>
      </g>
     </g>
    </g>
    <g id="ytick_8">
     <g id="line2d_20">
      <g>
       <use xlink:href="#mb70464e8a2" x="382.792387" y="179.338333" style="stroke: #000000; stroke-width: 0.8"/>
      </g>
     </g>
     <g id="text_22">
      <!-- $\mathdefault{10^{-5}}$ -->
      <g transform="translate(349.313588 184.181271) scale(0.14 -0.14)">
       <use xlink:href="#CMR17-31" transform="scale(0.996264)"/>
       <use xlink:href="#CMR17-30" transform="translate(45.690477 0) scale(0.996264)"/>
       <use xlink:href="#CMSY10-0" transform="translate(91.380954 36.153639) scale(0.697382)"/>
       <use xlink:href="#CMR17-35" transform="translate(145.621947 36.153639) scale(0.697382)"/>
      </g>
     </g>
    </g>
    <g id="ytick_9">
     <g id="line2d_21">
      <g>
       <use xlink:href="#mb70464e8a2" x="382.792387" y="144.666115" style="stroke: #000000; stroke-width: 0.8"/>
      </g>
     </g>
     <g id="text_23">
      <!-- $\mathdefault{10^{-4}}$ -->
      <g transform="translate(349.313588 149.509053) scale(0.14 -0.14)">
       <use xlink:href="#CMR17-31" transform="scale(0.996264)"/>
       <use xlink:href="#CMR17-30" transform="translate(45.690477 0) scale(0.996264)"/>
       <use xlink:href="#CMSY10-0" transform="translate(91.380954 36.153639) scale(0.697382)"/>
       <use xlink:href="#CMR17-34" transform="translate(145.621947 36.153639) scale(0.697382)"/>
      </g>
     </g>
    </g>
    <g id="ytick_10">
     <g id="line2d_22">
      <g>
       <use xlink:href="#mb70464e8a2" x="382.792387" y="109.993897" style="stroke: #000000; stroke-width: 0.8"/>
      </g>
     </g>
     <g id="text_24">
      <!-- $\mathdefault{10^{-3}}$ -->
      <g transform="translate(349.313588 114.836835) scale(0.14 -0.14)">
       <defs>
        <path id="CMR17-33" d="M 1414 2157 
C 1984 2157 2234 1662 2234 1090 
C 2234 320 1824 25 1453 25 
C 1114 25 563 194 390 693 
C 422 680 454 680 486 680 
C 640 680 755 782 755 948 
C 755 1133 614 1216 486 1216 
C 378 1216 211 1165 211 926 
C 211 335 787 -128 1466 -128 
C 2176 -128 2720 430 2720 1085 
C 2720 1707 2208 2157 1600 2227 
C 2086 2328 2554 2756 2554 3329 
C 2554 3820 2048 4179 1472 4179 
C 890 4179 378 3829 378 3329 
C 378 3110 544 3072 627 3072 
C 762 3072 877 3155 877 3321 
C 877 3486 762 3569 627 3569 
C 602 3569 570 3569 544 3557 
C 730 3959 1235 4032 1459 4032 
C 1683 4032 2106 3925 2106 3320 
C 2106 3143 2080 2828 1862 2550 
C 1670 2304 1453 2304 1242 2284 
C 1210 2284 1062 2269 1037 2269 
C 992 2263 966 2257 966 2208 
C 966 2163 973 2157 1101 2157 
L 1414 2157 
z
" transform="scale(0.015625)"/>
       </defs>
       <use xlink:href="#CMR17-31" transform="scale(0.996264)"/>
       <use xlink:href="#CMR17-30" transform="translate(45.690477 0) scale(0.996264)"/>
       <use xlink:href="#CMSY10-0" transform="translate(91.380954 36.153639) scale(0.697382)"/>
       <use xlink:href="#CMR17-33" transform="translate(145.621947 36.153639) scale(0.697382)"/>
      </g>
     </g>
    </g>
    <g id="ytick_11">
     <g id="line2d_23">
      <g>
       <use xlink:href="#mb70464e8a2" x="382.792387" y="75.321679" style="stroke: #000000; stroke-width: 0.8"/>
      </g>
     </g>
     <g id="text_25">
      <!-- $\mathdefault{10^{-2}}$ -->
      <g transform="translate(349.313588 80.164617) scale(0.14 -0.14)">
       <use xlink:href="#CMR17-31" transform="scale(0.996264)"/>
       <use xlink:href="#CMR17-30" transform="translate(45.690477 0) scale(0.996264)"/>
       <use xlink:href="#CMSY10-0" transform="translate(91.380954 36.153639) scale(0.697382)"/>
       <use xlink:href="#CMR17-32" transform="translate(145.621947 36.153639) scale(0.697382)"/>
      </g>
     </g>
    </g>
    <g id="ytick_12">
     <g id="line2d_24">
      <g>
       <use xlink:href="#mb70464e8a2" x="382.792387" y="40.649461" style="stroke: #000000; stroke-width: 0.8"/>
      </g>
     </g>
     <g id="text_26">
      <!-- $\mathdefault{10^{-1}}$ -->
      <g transform="translate(349.313588 45.492399) scale(0.14 -0.14)">
       <use xlink:href="#CMR17-31" transform="scale(0.996264)"/>
       <use xlink:href="#CMR17-30" transform="translate(45.690477 0) scale(0.996264)"/>
       <use xlink:href="#CMSY10-0" transform="translate(91.380954 36.153639) scale(0.697382)"/>
       <use xlink:href="#CMR17-31" transform="translate(145.621947 36.153639) scale(0.697382)"/>
      </g>
     </g>
    </g>
    <g id="ytick_13">
     <g id="line2d_25">
      <defs>
       <path id="m18a8685b11" d="M 0 0 
L -2 0 
" style="stroke: #000000; stroke-width: 0.6"/>
      </defs>
      <g>
       <use xlink:href="#m18a8685b11" x="382.792387" y="221.702539" style="stroke: #000000; stroke-width: 0.6"/>
      </g>
     </g>
    </g>
    <g id="ytick_14">
     <g id="line2d_26">
      <g>
       <use xlink:href="#m18a8685b11" x="382.792387" y="219.381345" style="stroke: #000000; stroke-width: 0.6"/>
      </g>
     </g>
    </g>
    <g id="ytick_15">
     <g id="line2d_27">
      <g>
       <use xlink:href="#m18a8685b11" x="382.792387" y="217.370636" style="stroke: #000000; stroke-width: 0.6"/>
      </g>
     </g>
    </g>
    <g id="ytick_16">
     <g id="line2d_28">
      <g>
       <use xlink:href="#m18a8685b11" x="382.792387" y="215.597064" style="stroke: #000000; stroke-width: 0.6"/>
      </g>
     </g>
    </g>
    <g id="ytick_17">
     <g id="line2d_29">
      <g>
       <use xlink:href="#m18a8685b11" x="382.792387" y="203.573173" style="stroke: #000000; stroke-width: 0.6"/>
      </g>
     </g>
    </g>
    <g id="ytick_18">
     <g id="line2d_30">
      <g>
       <use xlink:href="#m18a8685b11" x="382.792387" y="197.467698" style="stroke: #000000; stroke-width: 0.6"/>
      </g>
     </g>
    </g>
    <g id="ytick_19">
     <g id="line2d_31">
      <g>
       <use xlink:href="#m18a8685b11" x="382.792387" y="193.135795" style="stroke: #000000; stroke-width: 0.6"/>
      </g>
     </g>
    </g>
    <g id="ytick_20">
     <g id="line2d_32">
      <g>
       <use xlink:href="#m18a8685b11" x="382.792387" y="189.77571" style="stroke: #000000; stroke-width: 0.6"/>
      </g>
     </g>
    </g>
    <g id="ytick_21">
     <g id="line2d_33">
      <g>
       <use xlink:href="#m18a8685b11" x="382.792387" y="187.030321" style="stroke: #000000; stroke-width: 0.6"/>
      </g>
     </g>
    </g>
    <g id="ytick_22">
     <g id="line2d_34">
      <g>
       <use xlink:href="#m18a8685b11" x="382.792387" y="184.709127" style="stroke: #000000; stroke-width: 0.6"/>
      </g>
     </g>
    </g>
    <g id="ytick_23">
     <g id="line2d_35">
      <g>
       <use xlink:href="#m18a8685b11" x="382.792387" y="182.698418" style="stroke: #000000; stroke-width: 0.6"/>
      </g>
     </g>
    </g>
    <g id="ytick_24">
     <g id="line2d_36">
      <g>
       <use xlink:href="#m18a8685b11" x="382.792387" y="180.924846" style="stroke: #000000; stroke-width: 0.6"/>
      </g>
     </g>
    </g>
    <g id="ytick_25">
     <g id="line2d_37">
      <g>
       <use xlink:href="#m18a8685b11" x="382.792387" y="168.900955" style="stroke: #000000; stroke-width: 0.6"/>
      </g>
     </g>
    </g>
    <g id="ytick_26">
     <g id="line2d_38">
      <g>
       <use xlink:href="#m18a8685b11" x="382.792387" y="162.795481" style="stroke: #000000; stroke-width: 0.6"/>
      </g>
     </g>
    </g>
    <g id="ytick_27">
     <g id="line2d_39">
      <g>
       <use xlink:href="#m18a8685b11" x="382.792387" y="158.463577" style="stroke: #000000; stroke-width: 0.6"/>
      </g>
     </g>
    </g>
    <g id="ytick_28">
     <g id="line2d_40">
      <g>
       <use xlink:href="#m18a8685b11" x="382.792387" y="155.103492" style="stroke: #000000; stroke-width: 0.6"/>
      </g>
     </g>
    </g>
    <g id="ytick_29">
     <g id="line2d_41">
      <g>
       <use xlink:href="#m18a8685b11" x="382.792387" y="152.358103" style="stroke: #000000; stroke-width: 0.6"/>
      </g>
     </g>
    </g>
    <g id="ytick_30">
     <g id="line2d_42">
      <g>
       <use xlink:href="#m18a8685b11" x="382.792387" y="150.036909" style="stroke: #000000; stroke-width: 0.6"/>
      </g>
     </g>
    </g>
    <g id="ytick_31">
     <g id="line2d_43">
      <g>
       <use xlink:href="#m18a8685b11" x="382.792387" y="148.0262" style="stroke: #000000; stroke-width: 0.6"/>
      </g>
     </g>
    </g>
    <g id="ytick_32">
     <g id="line2d_44">
      <g>
       <use xlink:href="#m18a8685b11" x="382.792387" y="146.252628" style="stroke: #000000; stroke-width: 0.6"/>
      </g>
     </g>
    </g>
    <g id="ytick_33">
     <g id="line2d_45">
      <g>
       <use xlink:href="#m18a8685b11" x="382.792387" y="134.228737" style="stroke: #000000; stroke-width: 0.6"/>
      </g>
     </g>
    </g>
    <g id="ytick_34">
     <g id="line2d_46">
      <g>
       <use xlink:href="#m18a8685b11" x="382.792387" y="128.123263" style="stroke: #000000; stroke-width: 0.6"/>
      </g>
     </g>
    </g>
    <g id="ytick_35">
     <g id="line2d_47">
      <g>
       <use xlink:href="#m18a8685b11" x="382.792387" y="123.79136" style="stroke: #000000; stroke-width: 0.6"/>
      </g>
     </g>
    </g>
    <g id="ytick_36">
     <g id="line2d_48">
      <g>
       <use xlink:href="#m18a8685b11" x="382.792387" y="120.431275" style="stroke: #000000; stroke-width: 0.6"/>
      </g>
     </g>
    </g>
    <g id="ytick_37">
     <g id="line2d_49">
      <g>
       <use xlink:href="#m18a8685b11" x="382.792387" y="117.685885" style="stroke: #000000; stroke-width: 0.6"/>
      </g>
     </g>
    </g>
    <g id="ytick_38">
     <g id="line2d_50">
      <g>
       <use xlink:href="#m18a8685b11" x="382.792387" y="115.364691" style="stroke: #000000; stroke-width: 0.6"/>
      </g>
     </g>
    </g>
    <g id="ytick_39">
     <g id="line2d_51">
      <g>
       <use xlink:href="#m18a8685b11" x="382.792387" y="113.353982" style="stroke: #000000; stroke-width: 0.6"/>
      </g>
     </g>
    </g>
    <g id="ytick_40">
     <g id="line2d_52">
      <g>
       <use xlink:href="#m18a8685b11" x="382.792387" y="111.580411" style="stroke: #000000; stroke-width: 0.6"/>
      </g>
     </g>
    </g>
    <g id="ytick_41">
     <g id="line2d_53">
      <g>
       <use xlink:href="#m18a8685b11" x="382.792387" y="99.556519" style="stroke: #000000; stroke-width: 0.6"/>
      </g>
     </g>
    </g>
    <g id="ytick_42">
     <g id="line2d_54">
      <g>
       <use xlink:href="#m18a8685b11" x="382.792387" y="93.451045" style="stroke: #000000; stroke-width: 0.6"/>
      </g>
     </g>
    </g>
    <g id="ytick_43">
     <g id="line2d_55">
      <g>
       <use xlink:href="#m18a8685b11" x="382.792387" y="89.119142" style="stroke: #000000; stroke-width: 0.6"/>
      </g>
     </g>
    </g>
    <g id="ytick_44">
     <g id="line2d_56">
      <g>
       <use xlink:href="#m18a8685b11" x="382.792387" y="85.759057" style="stroke: #000000; stroke-width: 0.6"/>
      </g>
     </g>
    </g>
    <g id="ytick_45">
     <g id="line2d_57">
      <g>
       <use xlink:href="#m18a8685b11" x="382.792387" y="83.013667" style="stroke: #000000; stroke-width: 0.6"/>
      </g>
     </g>
    </g>
    <g id="ytick_46">
     <g id="line2d_58">
      <g>
       <use xlink:href="#m18a8685b11" x="382.792387" y="80.692474" style="stroke: #000000; stroke-width: 0.6"/>
      </g>
     </g>
    </g>
    <g id="ytick_47">
     <g id="line2d_59">
      <g>
       <use xlink:href="#m18a8685b11" x="382.792387" y="78.681764" style="stroke: #000000; stroke-width: 0.6"/>
      </g>
     </g>
    </g>
    <g id="ytick_48">
     <g id="line2d_60">
      <g>
       <use xlink:href="#m18a8685b11" x="382.792387" y="76.908193" style="stroke: #000000; stroke-width: 0.6"/>
      </g>
     </g>
    </g>
    <g id="ytick_49">
     <g id="line2d_61">
      <g>
       <use xlink:href="#m18a8685b11" x="382.792387" y="64.884302" style="stroke: #000000; stroke-width: 0.6"/>
      </g>
     </g>
    </g>
    <g id="ytick_50">
     <g id="line2d_62">
      <g>
       <use xlink:href="#m18a8685b11" x="382.792387" y="58.778827" style="stroke: #000000; stroke-width: 0.6"/>
      </g>
     </g>
    </g>
    <g id="ytick_51">
     <g id="line2d_63">
      <g>
       <use xlink:href="#m18a8685b11" x="382.792387" y="54.446924" style="stroke: #000000; stroke-width: 0.6"/>
      </g>
     </g>
    </g>
    <g id="ytick_52">
     <g id="line2d_64">
      <g>
       <use xlink:href="#m18a8685b11" x="382.792387" y="51.086839" style="stroke: #000000; stroke-width: 0.6"/>
      </g>
     </g>
    </g>
    <g id="ytick_53">
     <g id="line2d_65">
      <g>
       <use xlink:href="#m18a8685b11" x="382.792387" y="48.341449" style="stroke: #000000; stroke-width: 0.6"/>
      </g>
     </g>
    </g>
    <g id="ytick_54">
     <g id="line2d_66">
      <g>
       <use xlink:href="#m18a8685b11" x="382.792387" y="46.020256" style="stroke: #000000; stroke-width: 0.6"/>
      </g>
     </g>
    </g>
    <g id="ytick_55">
     <g id="line2d_67">
      <g>
       <use xlink:href="#m18a8685b11" x="382.792387" y="44.009546" style="stroke: #000000; stroke-width: 0.6"/>
      </g>
     </g>
    </g>
    <g id="ytick_56">
     <g id="line2d_68">
      <g>
       <use xlink:href="#m18a8685b11" x="382.792387" y="42.235975" style="stroke: #000000; stroke-width: 0.6"/>
      </g>
     </g>
    </g>
    <g id="ytick_57">
     <g id="line2d_69">
      <g>
       <use xlink:href="#m18a8685b11" x="382.792387" y="30.212084" style="stroke: #000000; stroke-width: 0.6"/>
      </g>
     </g>
    </g>
    <g id="ytick_58">
     <g id="line2d_70">
      <g>
       <use xlink:href="#m18a8685b11" x="382.792387" y="24.106609" style="stroke: #000000; stroke-width: 0.6"/>
      </g>
     </g>
    </g>
    <g id="ytick_59">
     <g id="line2d_71">
      <g>
       <use xlink:href="#m18a8685b11" x="382.792387" y="19.774706" style="stroke: #000000; stroke-width: 0.6"/>
      </g>
     </g>
    </g>
    <g id="text_27">
     <!-- separation (before wrap-around) -->
     <g transform="translate(341.826664 216.84901) rotate(-90) scale(0.14 -0.14)">
      <defs>
       <path id="CMR17-28" d="M 1958 -1561 
C 1958 -1555 1958 -1542 1939 -1523 
C 1645 -1224 858 -407 858 1581 
C 858 3569 1632 4379 1946 4697 
C 1946 4704 1958 4717 1958 4736 
C 1958 4755 1939 4768 1914 4768 
C 1843 4768 1299 4296 986 3594 
C 666 2887 576 2199 576 1588 
C 576 1128 621 351 1005 -471 
C 1312 -1135 1837 -1600 1914 -1600 
C 1946 -1600 1958 -1587 1958 -1561 
z
" transform="scale(0.015625)"/>
       <path id="CMR17-2d" d="M 1632 1216 
L 1632 1496 
L 26 1496 
L 26 1216 
L 1632 1216 
z
" transform="scale(0.015625)"/>
      </defs>
      <use xlink:href="#CMR17-73" transform="scale(0.996264)"/>
      <use xlink:href="#CMR17-65" transform="translate(35.801338 0) scale(0.996264)"/>
      <use xlink:href="#CMR17-70" transform="translate(76.286998 0) scale(0.996264)"/>
      <use xlink:href="#CMR17-61" transform="translate(127.182368 0) scale(0.996264)"/>
      <use xlink:href="#CMR17-72" transform="translate(172.872845 0) scale(0.996264)"/>
      <use xlink:href="#CMR17-61" transform="translate(208.153613 0) scale(0.996264)"/>
      <use xlink:href="#CMR17-74" transform="translate(253.84409 0) scale(0.996264)"/>
      <use xlink:href="#CMR17-69" transform="translate(289.124858 0) scale(0.996264)"/>
      <use xlink:href="#CMR17-6f" transform="translate(313.995916 0) scale(0.996264)"/>
      <use xlink:href="#CMR17-6e" transform="translate(359.686393 0) scale(0.996264)"/>
      <use xlink:href="#CMR17-28" transform="translate(440.657729 0) scale(0.996264)"/>
      <use xlink:href="#CMR17-62" transform="translate(475.938497 0) scale(0.996264)"/>
      <use xlink:href="#CMR17-65" transform="translate(529.436306 0) scale(0.996264)"/>
      <use xlink:href="#CMR17-66" transform="translate(569.921966 0) scale(0.996264)"/>
      <use xlink:href="#CMR17-6f" transform="translate(597.395479 0) scale(0.996264)"/>
      <use xlink:href="#CMR17-72" transform="translate(643.085956 0) scale(0.996264)"/>
      <use xlink:href="#CMR17-65" transform="translate(678.366724 0) scale(0.996264)"/>
      <use xlink:href="#CMR17-77" transform="translate(748.92835 0) scale(0.996264)"/>
      <use xlink:href="#CMR17-72" transform="translate(815.438231 0) scale(0.996264)"/>
      <use xlink:href="#CMR17-61" transform="translate(850.718999 0) scale(0.996264)"/>
      <use xlink:href="#CMR17-70" transform="translate(896.409476 0) scale(0.996264)"/>
      <use xlink:href="#CMR17-2d" transform="translate(947.304846 0) scale(0.996264)"/>
      <use xlink:href="#CMR17-61" transform="translate(977.380812 0) scale(0.996264)"/>
      <use xlink:href="#CMR17-72" transform="translate(1023.071289 0) scale(0.996264)"/>
      <use xlink:href="#CMR17-6f" transform="translate(1058.352057 0) scale(0.996264)"/>
      <use xlink:href="#CMR17-75" transform="translate(1104.042534 0) scale(0.996264)"/>
      <use xlink:href="#CMR17-6e" transform="translate(1154.937904 0) scale(0.996264)"/>
      <use xlink:href="#CMR17-64" transform="translate(1205.833274 0) scale(0.996264)"/>
      <use xlink:href="#CMR17-29" transform="translate(1256.728643 0) scale(0.996264)"/>
     </g>
    </g>
   </g>
   <g id="line2d_72">
    <path d="M 395.174551 214.010551 
L 408.932511 203.573173 
L 422.690471 193.135795 
L 436.448432 182.698418 
L 450.206392 172.26104 
L 463.964352 161.823663 
L 477.722313 151.386285 
L 491.480273 140.948907 
L 505.238233 130.51153 
L 518.996193 120.074152 
L 532.754154 109.636775 
L 546.512114 99.199397 
L 560.270074 88.762019 
L 574.028034 78.324642 
L 587.785995 67.887264 
L 601.543955 57.449887 
L 615.301915 47.012509 
L 629.059875 36.575132 
L 642.817836 26.137754 
" clip-path="url(#p8c43b622db)" style="fill: none; stroke: #333333; stroke-linecap: square"/>
    <defs>
     <path id="mca3d1a77d1" d="M 0 2 
C 0.530406 2 1.03916 1.789267 1.414214 1.414214 
C 1.789267 1.03916 2 0.530406 2 0 
C 2 -0.530406 1.789267 -1.03916 1.414214 -1.414214 
C 1.03916 -1.789267 0.530406 -2 0 -2 
C -0.530406 -2 -1.03916 -1.789267 -1.414214 -1.414214 
C -1.789267 -1.03916 -2 -0.530406 -2 0 
C -2 0.530406 -1.789267 1.03916 -1.414214 1.414214 
C -1.03916 1.789267 -0.530406 2 0 2 
z
" style="stroke: #333333; stroke-width: 0.8"/>
    </defs>
    <g clip-path="url(#p8c43b622db)">
     <use xlink:href="#mca3d1a77d1" x="395.174551" y="214.010551" style="fill: #333333; stroke: #333333; stroke-width: 0.8"/>
     <use xlink:href="#mca3d1a77d1" x="408.932511" y="203.573173" style="fill: #333333; stroke: #333333; stroke-width: 0.8"/>
     <use xlink:href="#mca3d1a77d1" x="422.690471" y="193.135795" style="fill: #333333; stroke: #333333; stroke-width: 0.8"/>
     <use xlink:href="#mca3d1a77d1" x="436.448432" y="182.698418" style="fill: #333333; stroke: #333333; stroke-width: 0.8"/>
     <use xlink:href="#mca3d1a77d1" x="450.206392" y="172.26104" style="fill: #333333; stroke: #333333; stroke-width: 0.8"/>
     <use xlink:href="#mca3d1a77d1" x="463.964352" y="161.823663" style="fill: #333333; stroke: #333333; stroke-width: 0.8"/>
     <use xlink:href="#mca3d1a77d1" x="477.722313" y="151.386285" style="fill: #333333; stroke: #333333; stroke-width: 0.8"/>
     <use xlink:href="#mca3d1a77d1" x="491.480273" y="140.948907" style="fill: #333333; stroke: #333333; stroke-width: 0.8"/>
     <use xlink:href="#mca3d1a77d1" x="505.238233" y="130.51153" style="fill: #333333; stroke: #333333; stroke-width: 0.8"/>
     <use xlink:href="#mca3d1a77d1" x="518.996193" y="120.074152" style="fill: #333333; stroke: #333333; stroke-width: 0.8"/>
     <use xlink:href="#mca3d1a77d1" x="532.754154" y="109.636775" style="fill: #333333; stroke: #333333; stroke-width: 0.8"/>
     <use xlink:href="#mca3d1a77d1" x="546.512114" y="99.199397" style="fill: #333333; stroke: #333333; stroke-width: 0.8"/>
     <use xlink:href="#mca3d1a77d1" x="560.270074" y="88.762019" style="fill: #333333; stroke: #333333; stroke-width: 0.8"/>
     <use xlink:href="#mca3d1a77d1" x="574.028034" y="78.324642" style="fill: #333333; stroke: #333333; stroke-width: 0.8"/>
     <use xlink:href="#mca3d1a77d1" x="587.785995" y="67.887264" style="fill: #333333; stroke: #333333; stroke-width: 0.8"/>
     <use xlink:href="#mca3d1a77d1" x="601.543955" y="57.449887" style="fill: #333333; stroke: #333333; stroke-width: 0.8"/>
     <use xlink:href="#mca3d1a77d1" x="615.301915" y="47.012509" style="fill: #333333; stroke: #333333; stroke-width: 0.8"/>
     <use xlink:href="#mca3d1a77d1" x="629.059875" y="36.575132" style="fill: #333333; stroke: #333333; stroke-width: 0.8"/>
     <use xlink:href="#mca3d1a77d1" x="642.817836" y="26.137754" style="fill: #333333; stroke: #333333; stroke-width: 0.8"/>
    </g>
   </g>
   <g id="line2d_73">
    <path d="M 395.174551 214.010551 
L 408.932511 203.573173 
L 422.690471 193.135795 
L 436.448432 182.698418 
L 450.206392 172.26104 
L 463.964352 161.823663 
L 477.722313 151.386285 
L 491.480273 140.948907 
L 505.238233 130.51153 
L 518.996193 120.074152 
L 532.754154 109.636775 
L 546.512114 99.199397 
L 560.270074 88.762019 
L 574.028034 78.324642 
L 587.785995 67.887264 
L 601.543955 57.449887 
L 615.301915 47.012509 
L 629.059875 36.575132 
L 642.817836 26.137754 
" clip-path="url(#p8c43b622db)" style="fill: none; stroke-dasharray: 3.7,1.6; stroke-dashoffset: 0; stroke: #999999"/>
   </g>
   <g id="patch_7">
    <path d="M 382.792387 223.40419 
L 382.792387 16.744114 
" style="fill: none; stroke: #000000; stroke-width: 0.8; stroke-linejoin: miter; stroke-linecap: square"/>
   </g>
   <g id="patch_8">
    <path d="M 382.792387 223.40419 
L 655.2 223.40419 
" style="fill: none; stroke: #000000; stroke-width: 0.8; stroke-linejoin: miter; stroke-linecap: square"/>
   </g>
   <g id="text_28">
    <!-- Separation grows as $e^{\lambda n}$, $\lambda=\ln 2$ -->
    <g transform="translate(382.792387 10.744114) scale(0.11 -0.11)">
     <defs>
      <path id="CMR17-53" d="M 2803 4290 
C 2803 4404 2797 4411 2758 4411 
C 2720 4411 2707 4385 2682 4328 
L 2490 3907 
C 2246 4257 1875 4416 1472 4416 
C 819 4416 294 3901 294 3253 
C 294 3056 339 2776 557 2510 
C 794 2218 1018 2167 1530 2033 
C 1722 1982 2042 1899 2106 1874 
C 2470 1722 2662 1341 2662 985 
C 2662 527 2336 38 1779 38 
C 1094 38 454 419 410 1311 
C 403 1413 397 1419 352 1419 
C 301 1419 294 1413 294 1285 
L 294 -1 
C 294 -115 301 -122 339 -122 
C 384 -122 397 -90 486 108 
C 493 127 493 140 614 381 
C 934 -39 1472 -128 1779 -128 
C 2477 -128 2970 451 2970 1124 
C 2970 1454 2848 1708 2778 1823 
C 2509 2230 2221 2306 1914 2382 
C 1869 2402 1856 2402 1498 2490 
C 1152 2579 1005 2624 845 2796 
C 666 2992 602 3196 602 3399 
C 602 3812 934 4263 1478 4263 
C 2157 4263 2579 3786 2675 2993 
C 2694 2878 2701 2872 2746 2872 
C 2803 2872 2803 2891 2803 2999 
L 2803 4290 
z
" transform="scale(0.015625)"/>
      <path id="CMMI12-65" d="M 1146 1479 
C 1318 1479 1754 1479 2061 1595 
C 2547 1783 2592 2158 2592 2274 
C 2592 2558 2349 2816 1926 2816 
C 1254 2816 288 2210 288 1073 
C 288 402 672 -64 1254 -64 
C 2125 -64 2675 609 2675 692 
C 2675 730 2637 762 2611 762 
C 2592 762 2586 756 2528 699 
C 2118 159 1510 64 1267 64 
C 902 64 710 350 710 822 
C 710 911 710 1071 806 1479 
L 1146 1479 
z
M 838 1600 
C 1114 2592 1722 2689 1926 2689 
C 2208 2689 2400 2522 2400 2277 
C 2400 1600 1376 1600 1107 1600 
L 838 1600 
z
" transform="scale(0.015625)"/>
      <path id="CMMI12-15" d="M 1978 3965 
C 1818 4416 1312 4416 1229 4416 
C 1190 4416 1120 4416 1120 4352 
C 1120 4302 1158 4295 1190 4289 
C 1286 4276 1363 4263 1466 4080 
C 1530 3959 2189 2059 2189 2046 
C 2189 2040 2182 2033 2131 1982 
L 467 311 
C 390 234 339 183 339 102 
C 339 12 416 -64 518 -64 
C 544 -64 614 -51 653 -13 
C 755 82 1670 1194 2253 1881 
C 2419 1383 2624 797 2822 261 
C 2854 166 2886 76 2976 -6 
C 3040 -64 3053 -64 3232 -64 
L 3354 -64 
C 3379 -64 3424 -64 3424 -13 
C 3424 13 3418 19 3392 45 
C 3334 115 3290 229 3264 306 
L 1978 3965 
z
" transform="scale(0.015625)"/>
      <path id="CMR17-3d" d="M 4115 2017 
C 4211 2017 4307 2017 4307 2125 
C 4307 2240 4198 2240 4090 2240 
L 512 2240 
C 403 2240 294 2240 294 2125 
C 294 2017 390 2017 486 2017 
L 4115 2017 
z
M 4090 896 
C 4198 896 4307 896 4307 1011 
C 4307 1119 4211 1119 4115 1119 
L 486 1119 
C 390 1119 294 1119 294 1011 
C 294 896 403 896 512 896 
L 4090 896 
z
" transform="scale(0.015625)"/>
     </defs>
     <use xlink:href="#CMR17-53" transform="scale(0.996264)"/>
     <use xlink:href="#CMR17-65" transform="translate(50.89537 0) scale(0.996264)"/>
     <use xlink:href="#CMR17-70" transform="translate(91.38103 0) scale(0.996264)"/>
     <use xlink:href="#CMR17-61" transform="translate(142.2764 0) scale(0.996264)"/>
     <use xlink:href="#CMR17-72" transform="translate(187.966877 0) scale(0.996264)"/>
     <use xlink:href="#CMR17-61" transform="translate(223.247645 0) scale(0.996264)"/>
     <use xlink:href="#CMR17-74" transform="translate(268.938122 0) scale(0.996264)"/>
     <use xlink:href="#CMR17-69" transform="translate(304.21889 0) scale(0.996264)"/>
     <use xlink:href="#CMR17-6f" transform="translate(329.089948 0) scale(0.996264)"/>
     <use xlink:href="#CMR17-6e" transform="translate(374.780425 0) scale(0.996264)"/>
     <use xlink:href="#CMR17-67" transform="translate(455.751762 0) scale(0.996264)"/>
     <use xlink:href="#CMR17-72" transform="translate(501.442239 0) scale(0.996264)"/>
     <use xlink:href="#CMR17-6f" transform="translate(536.723006 0) scale(0.996264)"/>
     <use xlink:href="#CMR17-77" transform="translate(579.81103 0) scale(0.996264)"/>
     <use xlink:href="#CMR17-73" transform="translate(646.32091 0) scale(0.996264)"/>
     <use xlink:href="#CMR17-61" transform="translate(712.198214 0) scale(0.996264)"/>
     <use xlink:href="#CMR17-73" transform="translate(757.888691 0) scale(0.996264)"/>
     <use xlink:href="#CMMI12-65" transform="translate(823.765995 0) scale(0.996264)"/>
     <use xlink:href="#CMMI12-15" transform="translate(868.977996 36.153639) scale(0.697382)"/>
     <use xlink:href="#CMMI12-6e" transform="translate(908.810664 36.153639) scale(0.697382)"/>
     <use xlink:href="#CMR17-2c" transform="translate(950.069639 0) scale(0.996264)"/>
     <use xlink:href="#CMMI12-15" transform="translate(1005.016664 0) scale(0.996264)"/>
     <use xlink:href="#CMR17-3d" transform="translate(1089.594745 0) scale(0.996264)"/>
     <use xlink:href="#CMR17-6c" transform="translate(1188.983542 0) scale(0.996264)"/>
     <use xlink:href="#CMR17-6e" transform="translate(1213.8546 0) scale(0.996264)"/>
     <use xlink:href="#CMR17-32" transform="translate(1281.354375 0) scale(0.996264)"/>
    </g>
   </g>
   <g id="legend_2">
    <g id="patch_9">
     <path d="M 389.092387 36.487576 
L 444.389276 36.487576 
Q 446.189276 36.487576 446.189276 34.687576 
L 446.189276 23.044114 
Q 446.189276 21.244114 444.389276 21.244114 
L 389.092387 21.244114 
Q 387.292387 21.244114 387.292387 23.044114 
L 387.292387 34.687576 
Q 387.292387 36.487576 389.092387 36.487576 
z
" style="fill: #ffffff; opacity: 0.8; stroke: #cccccc; stroke-linejoin: miter"/>
    </g>
    <g id="line2d_74">
     <path d="M 390.892387 27.994114 
L 399.892387 27.994114 
L 408.892387 27.994114 
" style="fill: none; stroke-dasharray: 3.7,1.6; stroke-dashoffset: 0; stroke: #999999"/>
    </g>
    <g id="text_29">
     <!-- $\epsilon\, e^{n\ln 2}$ -->
     <g transform="translate(416.092387 31.144114) scale(0.09 -0.09)">
      <use xlink:href="#CMMI12-f" transform="scale(0.996264)"/>
      <use xlink:href="#CMMI12-65" transform="translate(55.993364 0) scale(0.996264)"/>
      <use xlink:href="#CMMI12-6e" transform="translate(101.205365 36.153639) scale(0.697382)"/>
      <use xlink:href="#CMR17-6c" transform="translate(153.589232 36.153639) scale(0.697382)"/>
      <use xlink:href="#CMR17-6e" transform="translate(170.998891 36.153639) scale(0.697382)"/>
      <use xlink:href="#CMR17-32" transform="translate(218.248524 36.153639) scale(0.697382)"/>
     </g>
    </g>
   </g>
  </g>
 </g>
 <defs>
  <clipPath id="p3706908b44">
   <rect x="43.838278" y="16.744114" width="272.407613" height="206.660076"/>
  </clipPath>
  <clipPath id="p8c43b622db">
   <rect x="382.792387" y="16.744114" width="272.407613" height="206.660076"/>
  </clipPath>
 </defs>
</svg>
